<?xml version="1.0" encoding="UTF-8" standalone="no"?>
<!-- Created with Inkscape (http://www.inkscape.org/) -->

<svg
   width="43.900002mm"
   height="50.799999mm"
   viewBox="0 0 43.900002 50.799999"
   version="1.1"
   id="svg1"
   inkscape:version="1.4.2 (ebf0e940d0, 2025-05-08)"
   sodipodi:docname="wireguardfpga.hex.svg"
   xml:space="preserve"
   xmlns:inkscape="http://www.inkscape.org/namespaces/inkscape"
   xmlns:sodipodi="http://sodipodi.sourceforge.net/DTD/sodipodi-0.dtd"
   xmlns:xlink="http://www.w3.org/1999/xlink"
   xmlns="http://www.w3.org/2000/svg"
   xmlns:svg="http://www.w3.org/2000/svg"><sodipodi:namedview
     id="namedview1"
     pagecolor="#ffffff"
     bordercolor="#000000"
     borderopacity="0.25"
     inkscape:showpageshadow="2"
     inkscape:pageopacity="0.0"
     inkscape:pagecheckerboard="0"
     inkscape:deskcolor="#d1d1d1"
     inkscape:document-units="mm"
     inkscape:zoom="2.8284271"
     inkscape:cx="148.31565"
     inkscape:cy="116.67262"
     inkscape:window-width="1920"
     inkscape:window-height="1008"
     inkscape:window-x="0"
     inkscape:window-y="0"
     inkscape:window-maximized="1"
     inkscape:current-layer="layer1"
     showguides="true" /><defs
     id="defs1"><linearGradient
       id="linearGradient82"
       inkscape:collect="always"><stop
         style="stop-color:#ffffff;stop-opacity:1;"
         offset="0"
         id="stop82" /><stop
         style="stop-color:#a41010;stop-opacity:1;"
         offset="1"
         id="stop83" /></linearGradient><radialGradient
       inkscape:collect="always"
       xlink:href="#linearGradient82"
       id="radialGradient83"
       cx="26.698839"
       cy="28.158445"
       fx="26.698839"
       fy="28.158445"
       r="21.950081"
       gradientTransform="matrix(1.1824964,0,0,0.89930381,-4.8724391,2.8354476)"
       gradientUnits="userSpaceOnUse" /></defs><g
     inkscape:label="Layer 1"
     inkscape:groupmode="layer"
     id="layer1"
     transform="translate(-4.7488399,-2.7584469)"><path
       id="path1"
       style="fill:#ffffff;fill-rule:evenodd;stroke-width:0.592401;stroke-linecap:round;stroke-linejoin:bevel"
       d="M 26.69884,53.558446 4.74884,40.858447 V 15.458448 l 21.949998,-12.7000006 21.95,12.6999986 2e-6,25.4 z" /><path
       id="path9-9"
       style="fill:url(#radialGradient83);fill-opacity:1;fill-rule:evenodd;stroke-width:0.592401;stroke-linecap:round;stroke-linejoin:bevel"
       d="M 26.69884,2.7584467 4.7487589,15.458446 v 25.4 l 21.9500811,12.7 21.950081,-12.7 v -25.4 z m 0,1.190624 20.891748,12.1052053 V 40.262617 L 26.69884,52.367821 5.9817579,40.364419 5.8070919,40.262617 V 16.054276 Z m 0,0.8123539 L 6.5093749,16.459418 V 39.85644 L 26.69884,51.555467 46.888306,39.85644 V 16.459418 Z" /><path
       id="path12-7"
       style="fill:#a41010;fill-opacity:1;stroke-width:0.351444"
       d="M 26.63181,2.7584469 25.71724,3.2852815 5.6044099,14.927466 l -0.85557,0.528908 v 1.059369 23.284889 1.059372 l 0.85505,0.528905 20.1438901,11.642187 0.89801,0.52735 0.90577,-0.52735 20.17753,-11.642187 0.91975,-0.528905 V 39.800632 16.515743 15.456374 L 47.72547,14.927466 27.54742,3.2852815 Z m -0.0072,1.1905614 20.8918,12.1052377 V 40.26265 L 26.62461,52.367887 5.9077599,40.364282 5.7328199,40.26265 V 16.054246 Z"
       sodipodi:nodetypes="ccccccccccccccccccccccccccc" /><g
       id="g83"
       transform="matrix(1.0738531,0,0,1.0738531,-1.9717945,-1.5183231)"><path
         id="path66"
         style="fill:#000000;stroke-width:1.25902"
         d="m 39.268272,25.569472 c 0.309759,0.165015 0.627174,0.275772 0.705271,0.245934 0.146269,-0.05589 1.960186,-1.967704 2.111908,-2.225767 0.05537,-0.09419 0.03234,-0.144436 -0.06636,-0.144436 -0.08335,0 -0.460785,0.333495 -0.839298,0.741054 -0.378513,0.407558 -0.741579,0.741055 -0.806116,0.741055 -0.214425,0 -0.658866,-0.244004 -0.657776,-0.361093 5.92e-4,-0.06343 0.310858,-0.448655 0.689006,-0.856214 0.378146,-0.407559 0.688396,-0.776768 0.689655,-0.82043 0.0059,-0.196696 -0.222442,-0.02722 -0.8933,0.661678 -0.744386,0.76441 -0.995433,0.871008 -1.374757,0.584906 -0.192247,-0.144999 -0.191938,-0.157243 0.01497,-0.446324 0.117064,-0.163557 0.422867,-0.487995 0.679897,-0.720885 0.537398,-0.486925 0.685798,-0.688355 0.507482,-0.688355 -0.06815,0 -0.469238,0.333496 -0.891347,0.741055 -0.422108,0.407558 -0.83266,0.741055 -0.912168,0.741055 -0.07951,0 -0.257301,-0.105519 -0.395576,-0.234874 l -0.251788,-0.235524 0.829537,-0.765778 c 0.42425,-0.391667 0.712819,-0.719846 0.679897,-0.765777 -0.0025,-0.0021 -0.0068,-0.0044 -0.01171,-0.0045 -0.08861,-0.0026 -0.447738,0.282436 -0.797658,0.633703 -0.850177,0.853455 -0.898467,0.876327 -1.329214,0.615485 l -0.357189,-0.216656 0.843852,-0.780742 c 0.435256,-0.402393 0.731678,-0.737957 0.69421,-0.77944 -0.0025,-0.0021 -0.0062,-0.0031 -0.01108,-0.0033 -0.08852,-0.0015 -0.478565,0.282414 -0.867275,0.63175 -0.388709,0.349337 -0.832574,0.55606 -0.914119,0.635655 -0.07821,0.07635 -0.44356,-0.119481 -0.782693,-0.263501 0.586622,-0.600121 1.369723,-1.447832 1.467144,-1.613533 0.05537,-0.09419 0.03169,-0.144438 -0.06702,-0.144438 -0.08335,0 -0.460785,0.333495 -0.839298,0.741054 -0.378513,0.407558 -0.740928,0.741055 -0.805465,0.741055 -0.214425,0 -0.658866,-0.244004 -0.657776,-0.361093 5.92e-4,-0.06343 0.310207,-0.448654 0.688355,-0.856214 0.378146,-0.407559 0.688396,-0.776767 0.689655,-0.82043 0.0059,-0.196696 -0.22244,-0.02722 -0.893298,0.661678 -0.744387,0.76441 -0.995434,0.871009 -1.374757,0.584907 -0.192248,-0.144999 -0.19194,-0.157244 0.01496,-0.446325 0.117064,-0.163557 0.422867,-0.487995 0.679897,-0.720885 0.537397,-0.486925 0.685797,-0.688354 0.507482,-0.688354 -0.06815,0 -0.469238,0.333495 -0.891347,0.741054 -0.422108,0.407559 -0.832659,0.741055 -0.912167,0.741055 -0.07951,0 -0.257301,-0.105519 -0.395576,-0.234873 l -0.25179,-0.235525 0.829539,-0.765127 c 0.424026,-0.391461 0.713104,-0.720159 0.680547,-0.766428 -0.0025,-0.0028 -0.0068,-0.0044 -0.01234,-0.0045 -0.08861,-0.0026 -0.447737,0.283085 -0.797658,0.634353 -0.850177,0.853454 -0.898467,0.875676 -1.329214,0.614834 l -0.35719,-0.216655 0.844503,-0.780093 c 0.431856,-0.399247 0.726857,-0.733675 0.694861,-0.77944 -0.0025,-0.0021 -0.0069,-0.0038 -0.01171,-0.0039 -0.0014,-2.4e-5 -0.003,-1.14e-4 -0.0045,0 -0.09635,0.0072 -0.480736,0.288523 -0.863372,0.632402 -0.38871,0.349336 -0.856695,0.536574 -0.914118,0.635003 -0.06728,0.115314 0.529613,-1.713856 0.627846,-1.880938 0.05537,-0.09419 0.03234,-0.144437 -0.06636,-0.144437 -0.08335,0 1.249528,4.458545 7.433941,8.076102 z"
         sodipodi:nodetypes="cssssssscssssssssccccsccccssscsssssscsssssssscccssccccscssssc" /><path
         id="path68"
         style="fill:#000000;stroke-width:1.25902"
         d="m 32.356339,13.566862 c 0.17038,0 0.368732,0.139082 0.42248,0.590978 0.03597,0.302243 -0.04887,0.455412 -0.06206,0.46624 -6.186926,3.615788 -12.356235,7.327835 -18.540649,10.945392 -0.309758,0.165015 -0.627173,0.275772 -0.705271,0.245934 -0.146268,-0.05589 -1.960185,-1.967704 -2.111907,-2.225767 -0.05537,-0.09419 -0.03235,-0.144436 0.06636,-0.144436 0.08335,0 0.460785,0.333495 0.839298,0.741054 0.378513,0.407558 0.741579,0.741055 0.806116,0.741055 0.214424,0 0.658866,-0.244004 0.657776,-0.361093 -5.92e-4,-0.06343 -0.310858,-0.448655 -0.689006,-0.856214 -0.378146,-0.407559 -0.688396,-0.776768 -0.689655,-0.82043 -0.0059,-0.196696 0.222441,-0.02722 0.8933,0.661678 0.744386,0.76441 0.995433,0.871008 1.374756,0.584906 0.192248,-0.144999 0.191939,-0.157243 -0.01497,-0.446324 -0.117064,-0.163557 -0.422867,-0.487995 -0.679897,-0.720885 -0.537398,-0.486925 -0.685798,-0.688355 -0.507482,-0.688355 0.06815,0 0.469238,0.333496 0.891347,0.741055 0.422108,0.407558 0.83266,0.741055 0.912168,0.741055 0.07951,0 0.257301,-0.105519 0.395576,-0.234874 l 0.251788,-0.235524 -0.829538,-0.765778 c -0.424249,-0.391667 -0.712819,-0.719846 -0.679896,-0.765777 0.0025,-0.0021 0.0068,-0.0044 0.01171,-0.0045 0.08861,-0.0026 0.447737,0.282436 0.797658,0.633703 0.850177,0.853455 0.898467,0.876327 1.329214,0.615485 l 0.357189,-0.216656 -0.843852,-0.780742 c -0.435256,-0.402393 -0.731678,-0.737957 -0.694211,-0.77944 0.0025,-0.0021 0.0062,-0.0031 0.01108,-0.0033 0.08852,-0.0015 0.478565,0.282414 0.867274,0.63175 0.38871,0.349337 0.832575,0.55606 0.91412,0.635655 0.07821,0.07635 0.44356,-0.119481 0.782693,-0.263501 -0.586622,-0.600121 -1.369723,-1.447832 -1.467144,-1.613533 -0.05537,-0.09419 -0.03169,-0.144438 0.06702,-0.144438 0.08335,0 0.460785,0.333495 0.839298,0.741054 0.378513,0.407558 0.740928,0.741055 0.805465,0.741055 0.214424,0 0.658866,-0.244004 0.657776,-0.361093 -5.92e-4,-0.06343 -0.310207,-0.448654 -0.688355,-0.856214 -0.378147,-0.407559 -0.688396,-0.776767 -0.689655,-0.82043 -0.0059,-0.196696 0.22244,-0.02722 0.893298,0.661678 0.744387,0.76441 0.995433,0.871009 1.374757,0.584907 0.192248,-0.144999 0.191939,-0.157244 -0.01496,-0.446325 -0.117064,-0.163557 -0.422867,-0.487995 -0.679897,-0.720885 -0.537398,-0.486925 -0.685797,-0.688354 -0.507482,-0.688354 0.06815,0 0.469238,0.333495 0.891347,0.741054 0.422108,0.407559 0.832659,0.741055 0.912167,0.741055 0.07951,0 0.257301,-0.105519 0.395576,-0.234873 l 0.25179,-0.235525 -0.82954,-0.765127 c -0.424025,-0.391461 -0.713103,-0.720159 -0.680546,-0.766428 0.0025,-0.0028 0.0068,-0.0044 0.01234,-0.0045 0.08861,-0.0026 0.447737,0.283085 0.797658,0.634353 0.850177,0.853454 0.898467,0.875676 1.329214,0.614834 l 0.35719,-0.216655 -0.844503,-0.780093 c -0.431856,-0.399247 -0.726857,-0.733675 -0.694861,-0.77944 0.0025,-0.0021 0.0069,-0.0038 0.01171,-0.0039 0.0014,-2.4e-5 0.003,-1.14e-4 0.0045,0 0.09635,0.0072 0.480736,0.288523 0.863372,0.632402 0.38871,0.349336 0.856695,0.536574 0.914118,0.635003 0.06728,0.115314 0.496736,-0.118864 0.853611,-0.25244 -0.588049,-0.601014 -1.383225,-1.461416 -1.481457,-1.628498 -0.05537,-0.09419 -0.03234,-0.144437 0.06636,-0.144437 0.08335,0 0.460785,0.333496 0.839298,0.741054 0.378512,0.407559 0.741578,0.741055 0.806116,0.741055 0.214424,0 0.658866,-0.244005 0.657776,-0.361094 -5.92e-4,-0.06343 -0.310858,-0.448653 -0.689006,-0.856213 -0.378147,-0.407558 -0.688397,-0.776767 -0.689656,-0.82043 -0.0059,-0.196696 0.222441,-0.02722 0.893299,0.661678 0.744386,0.76441 0.995433,0.871008 1.374757,0.584906 0.192248,-0.144999 0.191939,-0.157243 -0.01496,-0.446324 -0.117064,-0.163557 -0.422867,-0.487995 -0.679897,-0.720885 -0.537398,-0.486925 -0.685798,-0.688355 -0.507482,-0.688355 0.06815,0 0.469238,0.333497 0.891347,0.741055 0.422108,0.407559 0.83266,0.741055 0.912168,0.741055 0.07951,0 0.2573,-0.105519 0.395575,-0.234873 l 0.251789,-0.235524 -0.829537,-0.765779 c -0.42425,-0.391667 -0.712819,-0.719845 -0.679897,-0.765777 0.0025,-0.0021 0.0068,-0.0044 0.01171,-0.0045 0.08861,-0.0026 0.447738,0.282436 0.797658,0.633704 0.850177,0.853454 0.898466,0.876327 1.329213,0.615485 l 0.35719,-0.216657 -0.843852,-0.780742 c -1.127556,-1.042422 -0.643442,-0.329326 0.184144,-0.150963 0.510889,0.110101 0.832574,0.556059 0.914119,0.635654 0.07821,0.07635 0.44356,-0.119481 0.782693,-0.263501 -2.823909,-2.888892 -1.119627,-1.618595 -0.560828,-1.016917 0.378513,0.407559 0.740929,0.741055 0.805467,0.741055 0.214424,0 0.658864,-0.244004 0.657774,-0.361093 -0.03861,-4.138992 0.181847,0.104096 0.890047,-0.430058 0.192247,-0.145 0.226775,-0.185676 -0.01497,-0.446325 -1.001041,-1.079322 0.14067,0.07287 0.616136,0.07287 0.07951,0 0.257301,-0.105519 0.395576,-0.234874 l 0.251786,-0.235551 C 27.96362,11.26985 31.0154,14.467736 31.744716,14.079626 l 0.357189,-0.216655 c -0.744169,-0.789726 0.254392,-0.495935 0.254392,-0.296032 z"
         sodipodi:nodetypes="scccssssssscssssssssccccsccccssscsssssscsssssssscccssccccscsscsssssscssssssssccccscccsscssssssccccss" /><g
         id="g58"
         transform="matrix(1.2590236,0,0,1.2590236,78.192065,-15.937259)"><path
           style="fill:#fcfcfc;fill-opacity:1;stroke:none;stroke-width:0.264583px;stroke-linecap:butt;stroke-linejoin:miter;stroke-opacity:1"
           d="m -37.720454,24.37441 -0.105235,0.362484 3.016803,0.11693 1.859195,-1.707184 -0.713277,-0.362484 -1.929352,0.853592 z"
           id="path58" /><path
           style="fill:#fcfcfc;fill-opacity:1;stroke:none;stroke-width:0.264583px;stroke-linecap:butt;stroke-linejoin:miter;stroke-opacity:1"
           d="m -35.428413,24.755389 -1.281576,0.520899 4.357357,1.637109 0.107487,-0.380339 -0.826823,-0.818554 c 0,0 -2.339909,-0.950847 -2.356445,-0.959115 z"
           id="path56" /><path
           style="fill:#ffee00;fill-opacity:1;stroke:none;stroke-width:0.264583px;stroke-linecap:butt;stroke-linejoin:miter;stroke-opacity:1"
           d="m -36.734793,26.29328 -0.338998,0.711067 2.94349,0.959115 -0.496094,-0.917773 -0.256315,-0.959115 z"
           id="path55" /><path
           style="fill:#fcfcfc;fill-opacity:1;stroke:none;stroke-width:0.264583px;stroke-linecap:butt;stroke-linejoin:miter;stroke-opacity:1"
           d="m -36.70172,26.409035 c 0,0 0.05788,0.463021 0.289388,0.56224 0.23151,0.09922 2.133203,0.711067 2.133203,0.711067 0,0 -0.553972,-0.760677 -0.595313,-0.760677 -0.04134,0 -1.223698,-0.330729 -1.223698,-0.330729 z"
           id="path54" /><path
           style="fill:#fffe00;fill-opacity:1;stroke:none;stroke-width:0.264583px;stroke-linecap:butt;stroke-linejoin:miter;stroke-opacity:1"
           d="m -34.76796,24.146396 c 0,0 -1.137148,0.157856 -1.639949,0.190011 -0.5028,0.03216 -0.508648,0.42095 -0.508648,0.42095 l 0.710354,0.122777 z"
           id="path57" /><path
           style="fill:#fdc200;fill-opacity:1;stroke:none;stroke-width:0.264583px;stroke-linecap:butt;stroke-linejoin:miter;stroke-opacity:1"
           d="m -42.332384,28.368605 -0.08268,0.760677 c 0,0 1.802474,0.529167 1.802474,0.496094 0,-0.03307 -0.173633,-0.942578 -0.173633,-0.942578 l 1.050066,0.14056 -0.02479,-0.785482 1.703255,0.479557 0.01654,-0.51263 1.686718,0.124024 2.182813,-0.322461 c 0,0 -2.689371,-0.760096 -2.741991,-0.906259 -0.05262,-0.146163 0.228015,-0.385871 0.222168,-0.438489 -0.0058,-0.05262 2.543236,-0.111084 2.543236,-0.111084 l 1.787329,0.455376 c 0,0 -0.777213,-0.917773 -2.621029,-1.141016 -1.843815,-0.223242 -1.339453,-0.504362 -1.339453,-0.504362 0,0 1.562696,-0.388606 1.653646,-0.446484 0.09095,-0.05788 1.554427,-1.44694 1.554427,-1.44694 0,0 -2.877343,1.5875 -3.175,1.496549 -0.297656,-0.09095 -0.496093,-0.107487 -0.479557,-0.157096 0.01654,-0.04961 0.487826,-0.248047 0.380339,-0.289388 -0.107487,-0.04134 -0.818555,0.248047 -1.07487,0.272852 -0.256315,0.0248 -0.487826,0.05788 -0.487826,0.05788 l 0.537435,0.892969 -0.206706,0.810286 -0.818554,0.405144 -0.636654,0.04961 -1.72806,1.033529 z"
           id="path53" /><path
           style="fill:#ffee00;fill-opacity:1;stroke:none;stroke-width:0.264583px;stroke-linecap:butt;stroke-linejoin:miter;stroke-opacity:1"
           d="m -41.828022,28.405812 c 0,0 0.417546,0.525033 0.496093,0.574642 0.07855,0.04961 0.04961,-0.826823 0.04961,-0.826823 0,0 0.785481,0.194304 0.876432,0.07441 0.09095,-0.119889 -0.03307,-0.67386 -0.03307,-0.67386 0,0 1.10381,0.21084 1.293979,0.305924 0.19017,0.09508 -0.206705,-0.508496 -0.144695,-0.545703 0.06201,-0.03721 0.483693,0.01654 0.686263,-0.06615 0.202573,-0.08268 0.967383,-0.239778 1.231966,-0.611849 0.264583,-0.37207 -0.02479,-0.665592 -0.02479,-0.665592 l -1.107943,0.901237 -0.636654,-0.115755 -0.479557,0.132291 z"
           id="path52" /><path
           style="fill:#fbfcfc;fill-opacity:1;stroke:none;stroke-width:0.264583px;stroke-linecap:butt;stroke-linejoin:miter;stroke-opacity:1"
           d="m -44.173699,26.36957 -0.223644,-0.840598 0.277627,-0.508986 0.817462,-0.308477 0.917718,0.231358 0.717208,-0.0077 0.277628,-0.262205 0.231357,-0.586105 0.532122,-0.354748 0.709496,-0.185086 3.678581,-0.778903 1.866281,-0.562969 0.786614,-0.508986 0.848312,-0.6478 0.06941,0.16195 -0.925428,1.503822 -1.889419,0.894581 -1.773737,0.493563 -0.771192,0.539833 0.694071,0.940853 -0.231357,0.709496 -1.071954,0.52441 -0.570682,-0.03085 c 0,0 -1.69662,1.580942 -2.992221,1.742892 -0.01184,0.0015 -0.03452,-0.0071 -0.03488,0.0044 -0.01169,0.21461 -0.03799,0.429882 -0.07694,0.637645 -0.04242,0.01543 -0.28534,-0.445363 -0.28534,-0.445363 l -0.06555,-0.653584 0.703771,-0.09423 1.216051,-0.567127 1.199693,-1.205144 -2.126727,-0.0055 -1.025191,0.130875 c 0,0 -0.545314,-0.392626 -0.578033,-0.349001 -0.03272,0.04362 -0.901099,0.387672 -0.901099,0.387672 z"
           id="path51"
           sodipodi:nodetypes="cccccccccccccccccccccccssscccccccscc" /><path
           style="fill:#fefefe;fill-opacity:1;stroke:none;stroke-width:0.264583px;stroke-linecap:butt;stroke-linejoin:miter;stroke-opacity:1"
           d="m -39.826214,33.976205 -0.239937,0.948847 0.392625,3.239169 0.403532,0.04362 0.62166,-0.436252 0.272656,1.635945 2.29032,-0.294471 0.338096,-0.67619 -0.817973,-0.09816 -0.09815,-0.872504 2.083101,-2.824728 -0.359907,-0.534408 -2.639322,-0.392626 -1.112441,-0.294471 z"
           id="path28" /><path
           style="fill:#fcfdfd;fill-opacity:1;stroke:none;stroke-width:0.264583px;stroke-linecap:butt;stroke-linejoin:miter;stroke-opacity:1"
           d="m -47.67874,35.066834 -0.414438,0.218125 1.090628,2.366666 4.209828,2.268506 4.373419,-0.523502 -0.229031,-1.61413 -0.927034,0.523502 -0.338095,-0.468969 -2.388478,0.283562 -2.704759,-0.501687 -1.843162,-1.406912 z"
           id="path12" /><path
           style="fill:#0060bf;fill-opacity:1;stroke:none;stroke-width:0.264583px;stroke-linecap:butt;stroke-linejoin:miter;stroke-opacity:1"
           d="m -36.025374,38.900395 -1.041548,-0.218128 -0.163595,-1.297847 1.897693,-2.693853 c 0,0 0.419893,-0.218125 0.507142,-0.141782 0.08725,0.07635 -0.539861,1.161521 -0.539861,1.161521 l -1.24877,1.968584 0.114517,0.81797 c 0,0 0.698003,0 0.670738,0.01635 -0.02727,0.01635 -0.196316,0.387172 -0.196316,0.387172 z"
           id="path27" /><path
           style="opacity:1;fill:#3dbbfe;fill-opacity:1;stroke:none;stroke-width:0.264583px;stroke-linecap:butt;stroke-linejoin:miter;stroke-opacity:1"
           d="m -39.376891,38.045399 c 0,0 0.115679,-0.516697 0.323901,-0.616953 0.208221,-0.100253 1.187632,-0.239066 1.21848,-0.215931 0.03085,0.02312 -0.578392,0.616952 -0.578392,0.616952 0,0 -0.146527,1.118228 -0.115679,1.125937 0.03085,0.0077 0.192797,0.01543 0.192797,0.01543 0,0 0.455004,-1.442128 1.071956,-1.989672 0.616953,-0.547548 0.994836,-1.195348 0.994836,-1.195348 0,0 0.370171,-0.755766 0.401019,-0.910005 0.03085,-0.154237 -0.385596,0.01543 -0.385596,0.01543 l 0.04241,-0.100254 c 0,0 -0.578394,0.131097 -0.72492,0.208221 -0.146526,0.07712 -0.389451,0.215933 -0.844455,0.293051 -0.455001,0.07712 -1.098948,0.250638 -1.307169,0.127249 -0.20822,-0.123391 -0.640088,-0.18123 -0.778901,-0.296908 -0.138814,-0.115679 -0.03471,-0.350894 -0.03471,-0.350894 0,0 0.516698,-0.273772 0.902294,-0.296907 0.385595,-0.02312 1.997384,0 2.082215,0.0077 0.08483,0.0077 1.480687,0.04627 1.634924,0.146526 0.154239,0.100254 -0.146527,0.455002 -0.146527,0.455002 0,0 -0.69407,1.025683 -0.778901,1.110514 -0.08483,0.08483 -0.740344,1.102805 -0.80204,1.272466 -0.0617,0.169661 -0.03085,0.902293 0.123392,1.079667 0.154238,0.177374 0.293052,0.215934 0.524409,0.215934 0.231357,0 0.362461,0.107966 0.362461,0.107966 0,0 -1.110515,0.300765 -1.141363,0.308478 -0.03085,0.0077 -1.087379,0.100253 -1.087379,0.100253 l -0.485852,-0.362458 0.03856,-1.1645 -0.740344,0.347038 z"
           id="path24"
           sodipodi:nodetypes="csccscscsccssssccsscssssccccccc" /><path
           style="fill:#fffc00;fill-opacity:1;stroke:none;stroke-width:0.264583px;stroke-linecap:butt;stroke-linejoin:miter;stroke-opacity:1"
           d="m -47.948202,35.181831 c 0.0088,0.01075 2.837811,5.943425 9.166895,2.791423 0.03602,-0.01794 0.172003,0.658586 0.207185,0.676196 0.787153,0.393981 -0.92696,0.916837 -0.507271,0.753112 l -3.686323,0.305377 c -1.084039,-0.272315 -2.477399,-1.09699 -3.839014,-1.864976 l -1.428724,-2.399382 z"
           id="path11"
           sodipodi:nodetypes="cssccccc" /><path
           style="fill:#fefefd;fill-opacity:1;stroke:none;stroke-width:0.264583px;stroke-linecap:butt;stroke-linejoin:miter;stroke-opacity:1"
           d="m -48.35741,25.764185 1.041109,0.269917 1.014116,-0.408731 -0.767336,-0.717208 0.508987,-0.832886 0.883012,-0.52441 -0.539832,-0.219789 -0.90615,0.389451 -0.50513,0.871446 -0.204366,0.566825 -0.508985,0.397163 z"
           id="path9" /><path
           style="fill:#fffefe;fill-opacity:1;stroke:none;stroke-width:0.264583px;stroke-linecap:butt;stroke-linejoin:miter;stroke-opacity:1"
           d="m -50.242971,32.708759 0.731975,-0.717497 0.774346,-0.916128 0.359907,-1.352381 -0.316283,-2.246694 0.07635,-1.265129 0.55622,-0.349002 0.665284,0.283564 0.305374,1.265129 -0.785251,3.84992 -1.723194,1.581412 z"
           id="path6" /><path
           style="fill:#ff1a00;fill-opacity:1;stroke:none;stroke-width:0.264583px;stroke-linecap:butt;stroke-linejoin:miter;stroke-opacity:1"
           d="m -49.8728,32.708759 c 0,0 1.203057,-0.786614 1.388144,-1.110515 0.185087,-0.3239 0.647801,-1.033396 0.694071,-1.388144 0.142626,-1.093501 -0.322827,-2.677614 0.09254,-3.300697 0.154239,-0.231357 0.632378,-0.832886 0.632378,-0.832886 0,0 0.555257,-0.09254 0.52441,-0.03085 -0.03085,0.0617 0.601527,2.42154 0.601527,2.42154 l -0.401018,0.262205 -0.447291,2.236452 -1.820011,1.465265 z"
           id="path5"
           sodipodi:nodetypes="cssscsccccc" /><path
           style="fill:#7cfd00;fill-opacity:1;stroke:none;stroke-width:0.264583px;stroke-linecap:butt;stroke-linejoin:miter;stroke-opacity:1"
           d="m -47.879271,25.706346 c 0,0 0.185084,-0.05398 0.312333,-0.100255 0.127246,-0.04627 0.134959,-0.111823 0.134959,-0.111823 0,0 0,-0.790471 0.07326,-0.925429 0.07326,-0.134959 0.244907,-0.520579 0.913858,-0.898437 0.224231,-0.126657 0.269861,-0.312318 0.269919,-0.312333 0,0 0.150382,-0.07326 0.169662,-0.05398 0.01929,0.01928 0.223644,0.312332 0.223644,0.312332 l -1.010258,0.697928 -0.1928,0.713352 0.82132,0.721063 -1.318736,0.327756 z"
           id="path8"
           sodipodi:nodetypes="cscsscscccccc" /><path
           style="fill:#ea0000;fill-opacity:1;stroke:none;stroke-width:0.264583px;stroke-linecap:butt;stroke-linejoin:miter;stroke-opacity:1"
           d="m -46.757189,26.076517 c 0,0 0.52441,1.341872 0.354748,2.236454 -0.169661,0.89458 -0.786614,3.084764 -1.233905,3.377817 -0.447292,0.293052 -0.123391,0.354748 -0.123391,0.354748 l 1.44984,-1.480688 0.107966,-1.511533 -0.01543,-0.539835 0.416444,-0.586105 -0.385596,-1.989672 z"
           id="path4" /><path
           style="fill:#178c05;fill-opacity:1;stroke:none;stroke-width:0.264583px;stroke-linecap:butt;stroke-linejoin:miter;stroke-opacity:1"
           d="m -47.189055,26.00711 c 0,0 -0.196577,-1.302522 0.06381,-1.663882 0.402738,-0.558912 0.81938,-0.594598 0.818108,-0.591141 l -0.706319,0.931963 0.16632,0.498962 0.586213,0.504416 z"
           id="path7"
           sodipodi:nodetypes="csccccc" /><path
           style="fill:#fdc300;fill-opacity:1;stroke:none;stroke-width:0.264583px;stroke-linecap:butt;stroke-linejoin:miter;stroke-opacity:1"
           d="m -47.94049,35.45946 c 0,0 2.061288,5.594928 9.259438,3.500919 0.03864,-0.01124 0.07946,-0.05091 0.114642,-0.0333 0.787153,0.393981 -0.92696,0.916837 -0.507271,0.753112 l -3.686323,0.305377 -3.839014,-1.864976 -1.428724,-2.399382 z"
           id="path10"
           sodipodi:nodetypes="cssccccc" /><path
           style="fill:#ffffff;fill-opacity:1;stroke:none;stroke-width:0.264583px;stroke-linecap:butt;stroke-linejoin:miter;stroke-opacity:1"
           d="m -38.015771,28.130436 -0.523502,1.243316 -1.832255,0.970661 -1.243317,0.425344 -1.581412,0.981567 -1.515972,2.061287 -0.152689,2.203072 0.218125,1.690473 2.37757,0.392626 0.207222,-0.567127 -0.11997,-1.472348 0.599844,-1.766819 1.265129,-1.363286 2.257603,-1.472348 1.526881,-1.31966 0.654375,-1.875882 z"
           id="path20" /><path
           style="fill:#dbf4ff;fill-opacity:1;stroke:none;stroke-width:0.264583px;stroke-linecap:butt;stroke-linejoin:miter;stroke-opacity:1"
           d="m -44.275979,37.580733 c 0,0 0.659831,0.158141 0.845238,0.0927 0.185407,-0.06544 0.578032,-1.096081 0.578032,-1.096081 l 0.507143,-0.03817 0.174501,1.494163 -2.094008,-0.158142 z"
           id="path13" /><path
           style="fill:#dbf4ff;fill-opacity:1;stroke:none;stroke-width:0.264583px;stroke-linecap:butt;stroke-linejoin:miter;stroke-opacity:1"
           d="m -44.030587,35.92843 c 0.132594,0.0408 0.511064,0.06916 0.648925,-0.01091 0.170019,-0.09875 0.99247,-1.243316 0.99247,-1.243316 l 0.50169,0.04908 -0.223578,1.630492 -1.785906,0.190859 c 0.136176,-0.124012 0.386942,0.04801 0.556816,-0.359061 -0.138731,0.02166 -0.426269,0.0026 -0.570122,-0.03718 -0.100483,-0.02426 -0.09656,-0.133348 -0.120295,-0.219964 z"
           id="path14"
           sodipodi:nodetypes="cscccccccc" /><path
           style="fill:#def5fd;fill-opacity:1;stroke:none;stroke-width:0.264583px;stroke-linecap:butt;stroke-linejoin:miter;stroke-opacity:1"
           d="m -43.561617,34.096176 c 0,0 0.545314,0.147235 0.948848,-0.04362 0.403532,-0.190862 1.385097,-1.128802 1.385097,-1.128802 l 0.452612,0.261752 -1.123347,1.43963 -1.652304,-0.403535 z"
           id="path15" /><path
           style="fill:#def5fd;fill-opacity:1;stroke:none;stroke-width:0.264583px;stroke-linecap:butt;stroke-linejoin:miter;stroke-opacity:1"
           d="m -41.993584,32.133624 c 0,0 0.481922,0.225935 0.832912,0.24591 0.543243,0.03092 1.907938,-0.801948 1.8776,-0.889169 l 0.512767,0.488358 -1.845425,1.209866 -1.275663,-0.800353 z"
           id="path16"
           sodipodi:nodetypes="csccccc" /><path
           style="fill:#def5fd;fill-opacity:1;stroke:none;stroke-width:0.264583px;stroke-linecap:butt;stroke-linejoin:miter;stroke-opacity:1"
           d="m -39.71417,30.923026 c 0,0 0.656423,0.193216 1.007413,0.213191 0.543243,0.03092 1.318998,-0.834667 1.28866,-0.921888 l 0.512767,0.488358 -1.720003,1.177147 -0.986646,-0.702196 z"
           id="path17"
           sodipodi:nodetypes="csccccc" /><path
           style="fill:#def5fd;fill-opacity:1;stroke:none;stroke-width:0.264583px;stroke-linecap:butt;stroke-linejoin:miter;stroke-opacity:1"
           d="m -37.923196,29.890058 c 0,0 0.624663,0.134959 0.794324,-0.0077 0.169664,-0.142671 0.401021,-0.60153 0.401021,-0.60153 l 0.597673,0.08869 -0.871445,1.114369 z"
           id="path18"
           sodipodi:nodetypes="cscccc" /><path
           style="fill:#def5fd;fill-opacity:1;stroke:none;stroke-width:0.264583px;stroke-linecap:butt;stroke-linejoin:miter;stroke-opacity:1"
           d="m -37.803662,28.378522 c 0,0 0.458859,0.300766 1.253185,0.347036 0.03076,0.0018 -0.0097,0.09856 -0.01957,0.122369 -0.09961,0.239453 -0.323607,0.274795 -0.323607,0.274795 l 0.829029,-0.07712 c 0,0 0.281485,-0.809751 0.266063,-0.805895 -0.01542,0.0039 -1.920267,-0.07712 -1.939547,-0.08097 -0.01929,-0.0039 -0.06555,0.219789 -0.06555,0.219789 z"
           id="path19"
           sodipodi:nodetypes="csscccccc" /><path
           style="fill:#fcfdfd;fill-opacity:1;stroke:none;stroke-width:0.264583px;stroke-linecap:butt;stroke-linejoin:miter;stroke-opacity:1"
           d="m -46.271337,28.582888 0.215932,1.642637 -0.632376,1.056532 1.820011,3.408664 0.05398,-0.994836 -0.724919,-1.742893 0.732632,-1.943401 -0.269918,-0.786614 z"
           id="path23" /><path
           style="fill:#40adfe;fill-opacity:1;stroke:none;stroke-width:0.264583px;stroke-linecap:butt;stroke-linejoin:miter;stroke-opacity:1"
           d="m -44.968529,34.325207 c -0.705634,-1.090926 -1.197858,-2.1278 -0.954303,-2.639322 0.05453,-0.114514 0.670737,-0.730721 0.725268,-0.768893 0.05453,-0.03817 0.05453,-0.992473 -0.04362,-1.17788 -0.09816,-0.185406 -0.807067,-0.512595 -0.807067,-0.512595 l 0.390009,0.756081 c 0,0 0.308478,0.431869 -0.0347,0.690216 -0.34318,0.25835 -0.805894,0.443436 -0.805894,0.443436 l -0.717209,0.393306 0.107966,0.354748 0.381741,0.374028 0.624665,2.938238 0.755767,0.524409 0.37017,-0.485849 z"
           id="path22"
           sodipodi:nodetypes="csssccscccccccc" /><path
           style="fill:#006cef;fill-opacity:1;stroke:none;stroke-width:0.264583px;stroke-linecap:butt;stroke-linejoin:miter;stroke-opacity:1"
           d="m -44.952601,34.258852 c 0,0 -0.431868,0.948566 -0.624665,0.686361 -0.192799,-0.262205 -1.071955,-2.855335 -1.071955,-2.855335 l 0.609241,3.225505 0.778902,0.431869 z"
           id="path21"
           sodipodi:nodetypes="cscccc" /><path
           style="fill:#008bf6;fill-opacity:1;stroke:none;stroke-width:0.264583px;stroke-linecap:butt;stroke-linejoin:miter;stroke-opacity:1"
           d="m -39.85503,34.929788 c 0,0 0.377883,0.401021 1.118227,0.431868 0.740344,0.03085 1.750603,-0.424156 1.750603,-0.424156 0,0 0.570682,-0.185084 0.670935,-0.154239 0.100256,0.03085 -0.300762,0.532122 -0.300762,0.532122 l -1.873994,0.586105 -1.326448,-0.431866 z"
           id="path25" /><path
           style="fill:#0060bf;fill-opacity:1;stroke:none;stroke-width:0.264583px;stroke-linecap:butt;stroke-linejoin:miter;stroke-opacity:1"
           d="m -37.54917,37.744637 c 0,0 -0.323898,0.3239 -0.424154,0.678648 -0.100256,0.354745 0.123391,0.817462 0.123391,0.817462 h 0.508985 c 0,0 -0.393306,-0.794327 -0.370171,-0.832887 0.02312,-0.03856 0.161949,-0.663223 0.161949,-0.663223 z"
           id="path26" /><path
           style="fill:#fefe04;fill-opacity:1;stroke:none;stroke-width:0.264583px;stroke-linecap:butt;stroke-linejoin:miter;stroke-opacity:1"
           d="m -37.132727,33.379694 0.1928,0.316191 c 0,0 0.539832,-0.215935 0.516696,-0.246782 -0.02312,-0.03085 1.37272,-1.418993 1.37272,-1.418993 l -0.138814,-0.416443 z"
           id="path30" /><path
           style="fill:#fdd300;fill-opacity:1;stroke:none;stroke-width:0.264583px;stroke-linecap:butt;stroke-linejoin:miter;stroke-opacity:1"
           d="m -36.970775,33.634189 c 0,0 1.712042,-1.372722 1.82001,-1.619501 0.107966,-0.246782 -0.200509,0.740344 -0.200509,0.740344 l -1.318736,1.102802 z"
           id="path29" /><path
           style="fill:#fefe04;fill-opacity:1;stroke:none;stroke-width:0.264583px;stroke-linecap:butt;stroke-linejoin:miter;stroke-opacity:1"
           d="m -36.674296,37.444406 0.141782,0.719815 1.788631,-1.788631 0.93794,-2.35576 -0.55622,-1.461442 -0.796161,-0.08725 -0.850688,1.330566 1.199689,0.490783 v 0.665285 z"
           id="path32" /><path
           style="fill:#feba00;fill-opacity:1;stroke:none;stroke-width:0.264583px;stroke-linecap:butt;stroke-linejoin:miter;stroke-opacity:1"
           d="m -36.619766,38.109688 c 0,0 1.810443,-1.679567 2.11582,-2.475728 0.305377,-0.796157 0.512596,-1.843161 0.512596,-1.843161 l 0.207219,1.221504 -1.079722,2.355758 -1.61413,1.101534 z"
           id="path31" /><path
           style="fill:#fefe04;fill-opacity:1;stroke:none;stroke-width:0.264583px;stroke-linecap:butt;stroke-linejoin:miter;stroke-opacity:1"
           d="m -34.92929,31.238728 0.06544,0.741628 1.079722,-0.992474 -0.250843,-1.755912 z"
           id="path34" /><path
           style="fill:#feba00;fill-opacity:1;stroke:none;stroke-width:0.264583px;stroke-linecap:butt;stroke-linejoin:miter;stroke-opacity:1"
           d="m -34.809323,31.958543 c 0,0 0.741628,-1.199692 0.687097,-2.497539 -0.05453,-1.297849 0.370813,0.665284 0.370813,0.665284 l -0.490783,2.224881 -0.447156,0.08725 z"
           id="path33" /><path
           style="fill:#fefe04;fill-opacity:1;stroke:none;stroke-width:0.264583px;stroke-linecap:butt;stroke-linejoin:miter;stroke-opacity:1"
           d="m -33.616094,26.870844 -0.732634,0.462714 c 0,0 0.462717,1.403568 0.508987,1.380432 0.04627,-0.02313 1.041109,0.146526 1.041109,0.146526 z"
           id="path37" /><path
           style="fill:#feba00;fill-opacity:1;stroke:none;stroke-width:0.264583px;stroke-linecap:butt;stroke-linejoin:miter;stroke-opacity:1"
           d="m -33.67779,28.135597 c 0,0 0.879158,0.532122 0.724919,0.840598 -0.154239,0.308477 -0.88687,0.02313 -0.88687,0.02313 l -0.02313,-0.701784 z"
           id="path35" /><path
           style="fill:#feba00;fill-opacity:1;stroke:none;stroke-width:0.264583px;stroke-linecap:butt;stroke-linejoin:miter;stroke-opacity:1"
           d="m -34.765169,26.69347 0.717206,0.948565 c 0,0 0.447292,-0.863734 0.293053,-0.956277 -0.154237,-0.09254 -0.84831,-0.177374 -0.84831,-0.177374 z"
           id="path36" /><path
           style="fill:#f9fafb;fill-opacity:1;stroke:none;stroke-width:0.264583px;stroke-linecap:butt;stroke-linejoin:miter;stroke-opacity:1"
           d="m -36.218864,22.351665 -0.0039,0.208221 0.694074,-0.0617 0.640088,-1.01026 -0.146526,-0.131102 z"
           id="path39" /><path
           style="fill:#39c5fe;fill-opacity:1;stroke:none;stroke-width:0.264583px;stroke-linecap:butt;stroke-linejoin:miter;stroke-opacity:1"
           d="m -36.183513,22.344651 c -0.182827,0.03324 0.245393,0.115014 0.692548,-0.109063 0.183261,-0.09183 -0.807065,0.425345 -0.807065,0.425345 z"
           id="path38"
           sodipodi:nodetypes="cscc" /><path
           style="fill:#ffffff;stroke:none;stroke-width:0.264583px;stroke-linecap:butt;stroke-linejoin:miter;stroke-opacity:1"
           d="m -44.443616,27.568772 c -0.01929,0.01928 -0.07326,0.16195 -0.07326,0.16195 l 0.605386,0.258349 2.622049,-0.763479 1.334159,-0.462715 0.06941,-0.300764 -0.68636,-0.192798 -1.958825,0.802038 -1.349584,0.439579 z"
           id="path41" /><path
           style="fill:#fb120a;fill-opacity:1;stroke:none;stroke-width:0.264583px;stroke-linecap:butt;stroke-linejoin:miter;stroke-opacity:1"
           d="m -44.499557,27.666919 c 0,0 0.86705,0.229032 2.175803,-0.29447 1.308756,-0.523502 0.528955,-0.57258 2.295774,-0.785252 1.766819,-0.212673 -3.424573,1.330566 -3.424573,1.330566 l -0.970661,-0.01091 z"
           id="path40" /><path
           style="fill:#3dadff;fill-opacity:1;stroke:none;stroke-width:0.264583px;stroke-linecap:butt;stroke-linejoin:miter;stroke-opacity:1"
           d="m -42.102901,27.726904 0.299924,0.149961 0.877956,-0.447158 -0.139057,-0.179953 -0.989745,0.291743 z"
           id="path43" /><path
           style="fill:#ffffff;fill-opacity:1;stroke:none;stroke-width:0.264583px;stroke-linecap:butt;stroke-linejoin:miter;stroke-opacity:1"
           d="m -41.852057,27.767802 c 0,0 0.278111,-0.27811 0.6053,-0.237212 0.327189,0.0409 -0.349001,0.204493 -0.368088,0.212673 -0.01908,0.0082 -0.237212,0.02454 -0.237212,0.02454 z"
           id="path42" /><path
           style="fill:#3caaff;fill-opacity:1;stroke:none;stroke-width:0.264583px;stroke-linecap:butt;stroke-linejoin:miter;stroke-opacity:1"
           d="m -44.090572,26.352712 c 0,0 0.0055,-0.594393 0.23994,-0.88341 0.234484,-0.289016 0.698002,-0.245391 1.019736,-0.147235 0.321736,0.09816 0.381719,0.174501 0.774348,0.152688 0.392625,-0.02181 0.796157,-0.0055 0.927034,-0.158141 0.130876,-0.152688 -0.147236,-0.46897 -0.147236,-0.46897 0,0 0.147236,0.0818 0.267206,-0.05453 0.119967,-0.136328 0.119967,-0.349001 0.348998,-0.507142 0.229034,-0.158141 0.376269,-0.256298 0.659831,-0.250844 0.283565,0.0055 0.790708,0.04362 0.954302,0 0.163592,-0.04363 0.632563,-0.278111 1.068816,-0.316283 0.436251,-0.03817 0.834329,0.201766 0.834329,0.201766 l -1.335185,0.7909 c 0,0 -0.181232,0.123391 -0.208222,0.246781 -0.02699,0.123391 0.04627,0.188942 0.177374,0.208222 0.131101,0.01928 0.358603,0.05784 0.481994,0.165806 0.123391,0.107967 0.119534,0.246781 0.119534,0.246781 l -0.173517,0.682504 -1.071956,0.3239 -0.80204,-0.401019 -2.321285,0.08483 -1.179919,-0.215933 z"
           id="path50" /><path
           style="fill:#ffffff;fill-opacity:1;stroke:none;stroke-width:0.264583px;stroke-linecap:butt;stroke-linejoin:miter;stroke-opacity:1"
           d="m -40.21884,24.645878 -0.125423,0.46897 0.343548,0.0818 0.408985,-0.223579 -0.256296,-0.392626 z"
           id="path44" /><path
           style="fill:#fcfcfc;fill-opacity:1;stroke:none;stroke-width:0.264583px;stroke-linecap:butt;stroke-linejoin:miter;stroke-opacity:1"
           d="m -41.876595,38.164221 -0.305376,-2.344854 0.894315,-2.050381 2.530258,-1.843161 1.864977,-1.363287 1.254222,-2.519352 1.428724,0.01091 -0.599848,2.988324 -2.661134,2.508445 c 0,0 -1.286941,-0.0218 -1.330565,-0.04363 -0.04362,-0.0218 -1.112441,0.62166 -1.112441,0.62166 l -0.07635,0.905221 0.05453,2.890166 z"
           id="path47" /><path
           style="fill:#36a9fe;fill-opacity:1;stroke:none;stroke-width:0.264583px;stroke-linecap:butt;stroke-linejoin:miter;stroke-opacity:1"
           d="m -41.374905,37.98972 c 0,0 -0.06544,-0.839785 -0.185409,-1.134255 -0.119968,-0.294468 -0.23994,-2.028572 1.777724,-3.566356 1.970958,-1.502187 3.921099,-1.72429 4.538977,-4.641323 0.01464,-0.06913 0.0034,-0.149375 0.04167,-0.211974 0.181531,-0.296639 0.872503,-0.05453 0.872503,-0.05453 l -0.567127,2.922884 -1.995849,1.723194 -1.090629,0.578033 -1.29785,0.0218 -0.796158,0.850691 0.305375,1.363286 -0.14178,1.952223 z"
           id="path46"
           sodipodi:nodetypes="cssssccccccccc" /><path
           style="fill:#0068c4;fill-opacity:1;stroke:none;stroke-width:0.264583px;stroke-linecap:butt;stroke-linejoin:miter;stroke-opacity:1"
           d="m -40.950122,37.960569 c 0,0 0.269918,-2.86883 0.694074,-3.323834 0.424153,-0.455001 0.825174,-0.93314 0.886867,-0.93314 0.0617,0 0.832887,-0.431866 0.832887,-0.431866 2.080325,-1.414592 1.938151,-1.266043 2.121558,-1.424779 0.417081,-0.360977 1.464096,-1.559974 1.672702,-2.994146 0.03533,-0.242916 -0.965118,-0.570681 -1.048819,-0.570681 -0.215934,0 0.740342,-0.370171 0.740342,-0.370171 l 0.771191,-0.0617 -0.154239,1.588652 -0.910005,2.159336 -2.236451,1.897129 c 0,0 -0.925431,0.04627 -0.987126,0.0617 -0.0617,0.01543 -0.762836,0.244637 -0.762836,0.244637 l -0.387173,0.376266 -0.408988,0.512596 0.278821,3.077205 z"
           id="path45"
           sodipodi:nodetypes="csscssscccccsccccc" /><path
           style="fill:#006dcb;fill-opacity:1;stroke:none;stroke-width:0.264583px;stroke-linecap:butt;stroke-linejoin:miter;stroke-opacity:1"
           d="m -42.498254,26.145492 c 0,0 -0.338095,-0.163594 -0.294468,-0.245392 0.04362,-0.0818 0.867047,0.04908 1.019736,0.0055 0.152688,-0.04363 0.839784,-0.256298 1.166973,-0.223579 0.327189,0.03272 0.877957,0.103609 1.237864,0.354454 0.359908,0.250844 0.485328,0.419892 0.954299,0.256297 0.468972,-0.163594 0.458065,-0.872502 0.458065,-0.872502 0,0 0.0927,0.147235 0.272656,0.114516 0.179954,-0.03272 0.196313,0.130875 0.196313,0.130875 l -0.283562,0.856144 -1.396005,0.229032 c 0,0 -0.414438,-0.130876 -0.452612,-0.256298 -0.03817,-0.125422 -0.828876,-0.452611 -0.828876,-0.452611 l -2.039477,0.261751 z"
           id="path48" /><path
           style="fill:#00a1fc;fill-opacity:1;stroke:none;stroke-width:0.264583px;stroke-linecap:butt;stroke-linejoin:miter;stroke-opacity:1"
           d="m -38.482311,24.757781 c 0,0 -0.269917,-0.23907 0.07712,-0.516698 0.347036,-0.277629 0.647801,-0.547546 0.840597,-0.616953 0.192797,-0.06941 1.353812,-0.390617 1.686454,-0.412429 0.332642,-0.02181 2.61751,-1.068816 2.988324,-1.581412 0.370813,-0.512595 -0.196313,0.512596 -0.196313,0.512596 l -1.679567,1.374192 -2.126726,0.305376 z"
           id="path49" /><path
           style="fill:#000000"
           d="m -42.63997,40.098211 c -0.822172,-0.103226 -1.548215,-0.34959 -2.526184,-0.857196 -1.147652,-0.595679 -1.975623,-1.40415 -2.473371,-2.415119 -0.467828,-0.950199 -0.595932,-1.426622 -0.462192,-1.718904 0.08334,-0.182141 0.148646,-0.216317 0.371904,-0.194633 0.234012,0.02273 0.308649,0.09485 0.549268,0.530785 0.566214,1.025816 2.081808,2.092125 2.272034,1.598508 0.02652,-0.06883 0.004,-0.308771 -0.05008,-0.533203 -0.09339,-0.387621 -0.121462,-0.417615 -0.560556,-0.598838 -0.369764,-0.152608 -0.496582,-0.257793 -0.633856,-0.52573 -0.155097,-0.302726 -0.398018,-1.403512 -0.537623,-2.436215 -0.0543,-0.401698 -0.272155,-0.761046 -0.551688,-0.910013 -0.120352,-0.06414 -0.210921,-0.03782 -0.394536,0.114663 -0.483046,0.401131 -1.708727,0.808018 -2.433735,0.807922 -0.577382,-7.7e-5 -0.581885,-0.09329 -0.02638,-0.546094 0.674148,-0.549516 1.304655,-1.305948 1.416961,-1.699956 0.242718,-0.851537 0.265084,-1.464662 0.08207,-2.249729 -0.09703,-0.416199 -0.19734,-0.956003 -0.222922,-1.199567 -0.07793,-0.741967 0.242572,-1.609595 0.746567,-2.021023 0.131499,-0.107347 0.282847,-0.350978 0.339511,-0.546523 0.216707,-0.747861 0.738455,-1.266974 1.442833,-1.435551 0.76863,-0.183953 0.993818,0.467206 0.239407,0.692274 -0.412405,0.123035 -0.76715,0.547688 -0.76715,0.918327 0,0.211887 0.06611,0.303979 0.358667,0.499629 0.288826,0.193155 0.411866,0.362054 0.631872,0.867383 0.28805,0.661619 0.341621,1.176864 0.198816,1.912194 -0.05742,0.295667 -0.04132,0.395928 0.09032,0.562574 0.08811,0.111532 0.235071,0.226451 0.326591,0.255375 0.09152,0.02892 0.266178,0.222128 0.388132,0.429343 0.30594,0.519833 0.25576,1.00177 -0.176998,1.699919 -0.298595,0.481709 -0.317924,0.551702 -0.27664,1.001744 0.05049,0.550401 0.377891,1.309759 0.581546,1.348813 0.09104,0.01746 0.292931,-0.208034 0.606764,-0.677695 0.25868,-0.387122 0.636124,-0.856036 0.838765,-1.042031 0.437355,-0.401429 1.425118,-0.991605 2.131788,-1.273716 0.278648,-0.111239 0.582628,-0.267285 0.67551,-0.346768 0.09288,-0.07948 0.529854,-0.322049 0.971047,-0.539035 0.441193,-0.216987 0.891763,-0.469309 1.001266,-0.560715 0.27259,-0.227541 0.181629,-0.41883 -0.199159,-0.41883 -0.165494,0 -0.438503,-0.05725 -0.606687,-0.127225 -0.168184,-0.06997 -0.320515,-0.11256 -0.338513,-0.09464 -0.018,0.01792 0.06383,0.146849 0.181842,0.286503 0.118012,0.139654 0.214567,0.276832 0.214567,0.30484 0,0.09077 -0.830035,0.05383 -1.051869,-0.04682 -0.314033,-0.142476 -0.354925,-0.03168 -0.1462,0.396114 0.101642,0.208322 0.184803,0.396673 0.184803,0.418558 0,0.0945 -0.532339,0.02641 -1.058371,-0.135371 -0.425725,-0.130935 -0.585162,-0.149973 -0.631448,-0.0754 -0.04513,0.07271 -0.107381,0.07554 -0.229577,0.01042 -0.244034,-0.130049 -0.418496,-0.432448 -0.546072,-0.946522 l -0.112395,-0.452902 -0.319372,0.01896 c -0.683399,0.04057 -0.639653,0.102495 -1.143451,-0.06483 -0.321264,-0.1067 -0.687892,-0.547896 -0.687892,-0.74484 0,-0.105782 0.111799,-0.12186 0.202079,-0.02906 0.03374,0.03468 0.258559,0.128558 0.499596,0.208612 0.178313,0.05922 0.244201,0.0082 0.268891,0.02491 0.06658,0.04505 0.03301,0.0421 -0.144561,0.0682 -0.314456,0.04623 -0.441036,0.07522 -0.185808,0.172744 0.423129,0.161681 2.051494,-0.186086 2.904453,-0.620299 0.208007,-0.10589 0.564933,-0.215716 0.79317,-0.244059 0.460721,-0.05721 0.70481,-0.281175 0.475193,-0.436009 -0.233878,-0.157709 -0.879905,-0.02871 -1.608083,0.321098 -1.012503,0.486398 -2.435177,0.899209 -2.405477,0.773562 -0.102275,-0.0049 1.179364,-0.28303 1.628188,-0.638729 0.174137,-0.138008 0.383108,-0.275568 0.464381,-0.305689 0.08127,-0.03012 0.147768,-0.09379 0.147768,-0.141486 0,-0.10678 -0.0015,-0.106775 -0.312376,0.0011 -0.203645,0.07069 -0.339748,0.05388 -0.696132,-0.086 l -0.442995,-0.173871 -0.276371,0.170082 c -0.344455,0.211982 -0.425214,0.212225 -0.636414,0.0019 -0.215918,-0.215002 -0.23525,-0.961272 -0.03237,-1.249691 0.298372,-0.424178 1.273031,-0.644961 1.72115,-0.38988 0.221507,0.126088 0.65149,0.162286 0.881901,0.07424 0.07467,-0.02853 0.229018,-0.248163 0.342995,-0.488068 0.256875,-0.540685 0.659115,-0.787544 1.458334,-0.894994 0.593988,-0.07986 1.101227,-0.190141 2.298661,-0.499775 0.564988,-0.146095 1.653505,-0.88173 2.388687,-1.614309 0.184938,-0.184283 0.263619,-0.188037 0.431771,-0.0206 0.117678,0.117178 0.117041,0.163364 -0.0065,0.470794 -0.113351,0.28209 -0.117376,0.352927 -0.02335,0.410795 0.216184,0.133042 1.023114,-0.323592 1.750326,-0.990493 0.163886,-0.150294 0.345076,-0.273262 0.402645,-0.273262 0.288713,0 0.160459,0.592507 -0.244721,1.130562 -0.330834,0.439327 -0.331942,0.454719 -0.05116,0.710087 0.185934,0.169103 0.251706,0.290907 0.216585,0.401093 -0.0576,0.180709 -0.78088,0.948257 -1.271962,1.34981 -0.324595,0.265418 -0.327803,0.273501 -0.175189,0.441422 0.0855,0.09408 0.22708,0.171054 0.314615,0.171054 0.448229,0 1.522199,0.773742 1.716414,1.23659 0.171746,0.409303 0.158449,0.503264 -0.09459,0.668358 -0.185198,0.120831 -0.246792,0.126087 -0.395309,0.03373 -0.211782,-0.131699 -0.651893,-0.264672 -0.651893,-0.196961 0,0.0266 0.1349,0.327647 0.299777,0.668987 0.164878,0.34134 0.321299,0.801564 0.347603,1.02272 0.0414,0.348062 0.01897,0.43534 -0.166867,0.649413 l -0.214694,0.247311 -0.302292,-0.160652 c -0.16626,-0.08836 -0.324774,-0.138265 -0.352253,-0.110903 -0.02748,0.02736 -0.0083,0.243404 0.04272,0.480093 0.146725,0.68125 0.111136,1.094459 -0.165683,1.923686 l -0.258368,0.773958 0.171544,0.456547 c 0.09435,0.251101 0.215644,0.798957 0.269543,1.217458 0.172024,1.33568 -0.192447,2.352143 -1.30232,3.631999 -0.347707,0.40096 -0.656673,0.836077 -0.686592,0.966926 -0.02992,0.13085 -0.100097,0.298307 -0.155952,0.372128 -0.174416,0.230517 -0.644755,0.426901 -0.892603,0.372696 -0.130207,-0.02848 -0.36432,0.0057 -0.539977,0.07875 -0.170559,0.07096 -0.5412,0.129021 -0.823646,0.129021 -0.287684,0 -0.619566,0.0546 -0.754619,0.124139 -0.749069,0.385715 -2.428782,0.546855 -3.845816,0.368942 z m 3.057626,-0.576405 c 0.994791,-0.233136 1.034689,-0.261122 0.840042,-0.589236 -0.114438,-0.192905 -0.140248,-0.349846 -0.100835,-0.613139 l 0.05297,-0.353872 -0.176161,0.202634 c -0.09689,0.111448 -0.208999,0.261061 -0.249134,0.332474 -0.09569,0.170257 -0.444395,0.0232 -0.636206,-0.268296 -0.130657,-0.198561 -0.142052,-0.200362 -0.489989,-0.07745 -0.470933,0.166364 -2.220889,0.234404 -2.983837,0.116015 -1.619343,-0.25128 -3.124459,-1.216451 -4.000561,-2.565402 -0.198849,-0.306171 -0.389597,-0.556675 -0.423885,-0.556675 -0.03429,0 -0.107396,0.05405 -0.16246,0.120123 -0.07946,0.09533 -0.03934,0.251116 0.194423,0.754914 0.909849,1.960893 2.808809,3.345253 5.035785,3.671136 0.727109,0.106401 2.276009,0.01984 3.099846,-0.173228 z m 1.842835,-0.601093 c -0.122705,-0.145208 -0.175464,-0.313792 -0.176384,-0.385239 -0.0013,-0.09903 0.04009,-0.173544 0.04703,-0.219449 0.0081,-0.05341 0.08164,-0.230651 0.181026,-0.392506 0.165106,-0.268872 0.186439,-0.279762 0.247066,-0.126121 0.0365,0.09249 0.06903,0.270895 0.07229,0.396457 0.0084,0.321667 0.468683,0.822711 0.755843,0.822711 0.242862,0 0.601113,-0.207264 0.601113,-0.34777 0,-0.05138 -0.09974,-0.06418 -0.247815,-0.03179 -0.397689,0.08698 -0.596573,-0.175746 -0.596573,-0.78806 0,-0.565368 0.05473,-0.658131 1.245473,-2.110995 0.51488,-0.628222 0.69662,-0.913354 0.69662,-1.092927 0,-0.133627 -0.03546,-0.26478 -0.0788,-0.291451 -0.152325,-0.09374 -0.900847,-0.219382 -1.736638,-0.291495 -0.545377,-0.04705 -0.978943,-0.134844 -1.224363,-0.247911 -0.494203,-0.227683 -0.81729,-0.223413 -1.274411,0.01685 -1.150616,0.604749 -0.5064,2.065341 0.823369,1.866776 0.555616,-0.08297 1.013157,-0.260704 1.638262,-0.636403 0.30466,-0.183107 0.581967,-0.332921 0.616238,-0.332921 0.03427,0 -0.0484,0.160804 -0.183705,0.357342 -0.135307,0.196538 -0.342094,0.546815 -0.459525,0.778392 -0.117431,0.231578 -0.317806,0.524903 -0.445278,0.651834 -0.271271,0.27012 -0.920445,0.482606 -1.474428,0.482606 -0.316785,0 -0.433026,0.04392 -0.611943,0.231222 -0.254523,0.266449 -0.355273,0.596046 -0.23744,0.776773 0.06793,0.104197 0.131559,0.07693 0.380033,-0.16288 0.177916,-0.171712 0.485414,-0.345635 0.761439,-0.430676 l 0.463002,-0.142648 -0.202614,0.347568 c -0.283558,0.48642 -0.345452,0.898293 -0.182223,1.212602 0.147601,0.284219 0.238141,0.337843 0.586717,0.347495 l 0.239713,0.0066 z m 1.915373,-1.038483 c 0.908176,-0.709933 1.572442,-1.756971 1.762759,-2.778518 0.116205,-0.623745 0.0333,-1.556019 -0.181673,-2.04288 -0.150264,-0.340315 -0.177724,-0.360696 -0.415828,-0.308621 -0.160759,0.03516 -0.254939,0.02223 -0.254939,-0.035 0,-0.146109 -0.169252,-0.104244 -0.227932,0.05638 -0.02957,0.08093 -0.200455,0.323956 -0.379757,0.540065 -0.179301,0.216108 -0.29641,0.410422 -0.260241,0.431809 0.03617,0.02139 0.271385,0.06652 0.522702,0.100297 0.316627,0.04255 0.520726,0.124925 0.664658,0.268247 0.418361,0.416585 0.13301,1.016834 -1.207562,2.540167 -0.3375,0.383511 -0.581791,0.748215 -0.636368,0.95004 -0.08511,0.314745 -0.04683,0.655688 0.07362,0.655577 0.0317,-2.9e-5 0.274954,-0.16993 0.540561,-0.377558 z m -5.056687,-0.04995 c 0.379268,-0.09642 0.727576,-0.206706 0.774018,-0.245073 0.142117,-0.117408 0.0831,-1.844294 -0.07543,-2.206895 -0.475197,-1.086957 0.741548,-2.366093 2.002969,-2.105674 l 0.436744,0.09016 0.524562,-0.371168 c 0.288509,-0.204143 0.801475,-0.644587 1.139924,-0.978765 0.971501,-0.959239 1.46478,-1.940982 1.56332,-3.111377 0.05757,-0.683816 0.01828,-0.730131 -0.620973,-0.732032 -0.50544,-0.0015 -0.580771,0.06803 -0.650356,0.60028 -0.124486,0.952191 -1.023712,2.136488 -2.193983,2.889513 -2.142336,1.378512 -2.426046,1.582141 -2.777524,1.993528 -0.743339,0.870039 -1.011443,1.421691 -1.169374,2.406101 -0.0798,0.497386 -0.01546,1.380647 0.134149,1.841613 0.04525,0.139414 0.105714,0.134759 0.91195,-0.07022 z m -1.379173,-0.0042 c 0,-0.05247 -0.04383,-0.33227 -0.0974,-0.621769 l -0.0974,-0.526362 -0.646668,0.04413 c -0.540063,0.03686 -0.713694,0.01461 -1.053258,-0.134956 -0.496854,-0.218849 -0.469836,-0.219431 -0.468281,0.01009 0.0023,0.332836 0.216615,0.919483 0.366496,1.003005 0.426679,0.237768 1.996509,0.415357 1.996509,0.225857 z m 3.697666,-1.24324 c 0.722199,-0.0725 0.888462,-0.136744 1.193083,-0.461034 0.275971,-0.293789 0.180965,-0.349513 -0.305365,-0.179105 -0.223114,0.07818 -0.723429,0.163705 -1.111812,0.190061 -0.703476,0.04774 -0.706594,0.04898 -0.823278,0.327058 -0.06442,0.153526 -0.117129,0.339683 -0.117129,0.413684 0,0.113333 0.03993,0.106232 0.253275,-0.04503 0.175627,-0.124527 0.454985,-0.19983 0.911226,-0.245629 z m -4.02051,-0.309114 c 0.08962,-0.02612 0.174595,-0.194602 0.231571,-0.459145 0.0495,-0.229833 0.143702,-0.545859 0.209337,-0.702279 l 0.119336,-0.2844 -0.477565,-0.05851 c -0.642586,-0.07872 -1.227798,-0.340233 -1.531085,-0.684193 -0.137567,-0.156015 -0.288219,-0.283664 -0.334782,-0.283664 -0.175591,0 -0.491068,1.500588 -0.39533,1.880418 0.128313,0.509073 1.336385,0.837231 2.178518,0.591768 z m -2.602437,-0.937717 c 0.02392,-0.127171 0.06869,-0.420402 0.09948,-0.651624 0.03079,-0.231221 0.08886,-0.481579 0.129045,-0.55635 0.05089,-0.09469 -0.0267,-0.337089 -0.255673,-0.798765 -0.180803,-0.36455 -0.374514,-0.889835 -0.430469,-1.167301 -0.111102,-0.550921 -0.0813,-0.659384 0.402918,-1.466563 0.307512,-0.512612 0.317552,-1.080857 0.02462,-1.393466 -0.183064,-0.19536 -0.749836,-0.545233 -0.883244,-0.545233 -0.118165,0 -0.02213,0.297924 0.199367,0.618495 0.378789,0.548216 0.382724,0.945767 0.01064,1.074927 -0.295911,0.102717 -0.55453,0.486576 -0.641183,0.951685 -0.05769,0.30966 -0.06724,0.318839 -0.136829,0.131524 l -0.07481,-0.201368 -0.186907,0.188627 c -0.186076,0.187788 -0.186156,0.189192 -0.01803,0.315656 0.09288,0.06987 0.21388,0.152929 0.268884,0.184585 0.055,0.03166 0.202433,0.643905 0.327622,1.360553 0.269827,1.544632 0.358955,1.791281 0.728324,2.015523 0.360054,0.218588 0.384304,0.215202 0.436244,-0.0609 z m 3.587765,-1.303248 c 0.136622,-0.196538 0.347433,-0.449069 0.46847,-0.56118 0.121037,-0.112111 0.220068,-0.232305 0.220068,-0.267098 0,-0.03479 -0.199487,-0.154577 -0.443304,-0.266186 -0.574458,-0.262963 -0.958532,-0.591277 -1.166453,-0.997106 -0.09179,-0.17916 -0.199229,-0.325746 -0.238754,-0.325746 -0.268769,0 -1.360165,1.367342 -1.360165,1.704065 0,0.240298 0.592366,0.775299 1.028462,0.928865 0.200628,0.07065 0.56244,0.13144 0.804026,0.13509 0.424245,0.0064 0.447731,-0.0056 0.68765,-0.350704 z m 5.502398,-0.78667 c 0.462081,-0.430389 0.843542,-1.017076 0.843542,-1.297369 0,-0.154315 -0.0589,-0.118705 -0.372425,0.225173 -0.204834,0.224662 -0.620776,0.616576 -0.924316,0.87092 -0.441511,0.369952 -0.52324,0.473873 -0.408635,0.519593 0.295918,0.118054 0.457343,0.05843 0.861834,-0.318317 z m -3.745353,-0.854 c 0.332252,-0.219056 0.667571,-0.436119 0.745153,-0.482364 0.119489,-0.07122 0.07258,-0.129082 -0.306752,-0.378362 -0.246297,-0.161855 -0.578176,-0.464545 -0.737511,-0.672644 -0.201635,-0.263347 -0.345794,-0.374094 -0.474233,-0.364319 -0.277738,0.02114 -1.646517,0.687746 -1.700658,0.828238 -0.0664,0.172313 0.324091,0.801485 0.642105,1.034571 0.296139,0.217051 0.800201,0.420946 1.058925,0.428338 0.09288,0.0027 0.44072,-0.174403 0.772971,-0.393458 z m -8.630971,-0.230354 c 0.707449,-0.39395 1.555091,-1.283967 1.889787,-1.984264 l 0.265315,-0.555127 -0.167239,-0.344677 c -0.285426,-0.588256 -0.192129,-1.025445 0.21883,-1.025445 0.148869,0 0.19365,-0.06372 0.237738,-0.338262 0.05814,-0.362036 -0.06982,-1.35038 -0.208159,-1.607767 -0.131482,-0.244635 -0.525264,-0.235068 -0.801066,0.01946 -0.235143,0.217007 -0.310776,0.20397 -0.530059,-0.09137 -0.222861,-0.300158 -0.600592,-0.340138 -0.851653,-0.09014 -0.285535,0.284323 -0.298951,0.806244 -0.04682,1.821533 0.277492,1.117431 0.265249,2.09103 -0.03479,2.766433 -0.245163,0.55188 -0.759609,1.202575 -1.225697,1.550318 -0.20961,0.156388 -0.363421,0.31284 -0.341802,0.347671 0.073,0.117609 1.067612,-0.174345 1.595616,-0.468368 z m 14.155318,-0.35711 c 0.233821,-0.409486 0.281858,-0.588885 0.313937,-1.17242 0.03896,-0.708793 -0.02649,-1.200611 -0.142124,-1.067877 -0.03604,0.04137 -0.114167,0.245486 -0.173611,0.453585 -0.05944,0.208099 -0.175199,0.510789 -0.257233,0.672644 -0.118489,0.233785 -0.14031,0.428242 -0.106146,0.945907 0.02365,0.358393 0.05338,0.651624 0.06606,0.651624 0.01268,0 0.147283,-0.217559 0.299117,-0.483463 z m -3.900778,-0.456558 c 0.405451,-0.243262 0.938794,-0.657308 0.938794,-0.728806 0,-0.03144 -0.191843,-0.14786 -0.426318,-0.258708 -0.234474,-0.110849 -0.547953,-0.308358 -0.69662,-0.43891 -0.148667,-0.130551 -0.295041,-0.23797 -0.325276,-0.238709 -0.03023,-7.39e-4 -0.315216,0.108939 -0.633291,0.243728 -0.711138,0.301356 -0.757915,0.443557 -0.308993,0.939334 0.279525,0.3087 0.843495,0.657861 1.071729,0.66352 0.04096,0.001 0.211948,-0.08064 0.379975,-0.181449 z m 1.420156,-1.267094 c 0.182883,-0.199937 0.363053,-0.510197 0.362986,-0.625076 -2.3e-5,-0.03772 -0.209673,-0.07762 -0.465891,-0.08865 -0.267062,-0.0115 -0.611216,-0.09391 -0.806506,-0.193113 l -0.340655,-0.173052 -0.159042,0.193113 c -0.133133,0.161655 -0.141902,0.220508 -0.05383,0.361275 0.09088,0.145243 1.073513,0.714685 1.233273,0.714685 0.03114,0 0.134488,-0.08513 0.229663,-0.189182 z m -4.072591,-0.882816 c -0.14199,-0.332338 -0.238046,-0.77637 -0.180373,-0.833799 0.03389,-0.03374 0.221907,-0.01378 0.417819,0.04437 0.735105,0.21819 0.770648,0.220498 0.694918,0.04513 -0.0379,-0.08777 -0.08628,-0.282542 -0.107503,-0.432836 -0.04685,-0.331783 0.08301,-0.355827 0.523647,-0.09695 0.347885,0.204386 1.023004,0.42164 1.093161,0.35178 0.02641,-0.02629 -0.06512,-0.176105 -0.203384,-0.332915 -0.245631,-0.278572 -0.328528,-0.531497 -0.174199,-0.531497 0.04246,0 0.425692,0.132427 0.851632,0.294281 0.685109,0.260338 1.351021,0.381991 1.351021,0.246814 0,-0.02611 -0.115597,-0.144325 -0.256882,-0.262704 -0.309339,-0.259187 -0.2906,-0.298718 0.09275,-0.195658 0.321549,0.08645 2.288317,0.268454 2.340405,0.216587 0.01805,-0.01797 -0.009,-0.110403 -0.06002,-0.2054 -0.114804,-0.213604 -0.690173,-0.555773 -1.238946,-0.736794 -0.227094,-0.07491 -0.44218,-0.162221 -0.477968,-0.194023 -0.03579,-0.0318 0.420183,-0.119687 1.013267,-0.195301 1.174115,-0.149693 1.584008,-0.115235 2.28096,0.191752 0.665433,0.293104 0.684227,-0.06645 0.03042,-0.582072 -0.532774,-0.420175 -1.192745,-0.677425 -1.96464,-0.765796 -0.387128,-0.04432 -0.770366,-0.08087 -0.851638,-0.08122 -0.08127,-3.51e-4 -0.147768,-0.03848 -0.147768,-0.08472 0,-0.04624 0.05189,-0.08408 0.115313,-0.08408 0.06342,0 0.376902,-0.130618 0.696621,-0.290262 0.603986,-0.301587 1.80567,-1.316004 1.80567,-1.52428 0,-0.132336 -0.215955,-0.163448 -0.29135,-0.04197 -0.08479,0.136608 -0.813551,0.506841 -1.25408,0.637109 -0.235023,0.0695 -0.619905,0.126951 -0.855293,0.127674 -0.623236,0.0019 -1.351886,0.195529 -1.737645,0.461726 -0.358705,0.247528 -0.411914,0.354377 -0.214112,0.429958 0.06753,0.0258 0.204513,0.215041 0.304412,0.420528 0.314194,0.646284 0.0467,1.258401 -0.709137,1.622743 -0.399244,0.19245 -1.061706,0.232497 -1.221065,0.07381 -0.201003,-0.20015 -0.104604,-0.277685 0.309677,-0.249079 0.76647,0.05292 1.444529,-0.494223 1.310703,-1.057648 -0.07901,-0.332637 -0.353688,-0.599514 -0.679725,-0.66042 -0.155118,-0.02898 -0.282032,-0.08336 -0.282032,-0.120856 0,-0.13687 0.730931,-0.687007 1.224363,-0.921521 0.283501,-0.134739 0.855697,-0.300994 1.299202,-0.37749 1.228923,-0.211966 2.240852,-0.79108 2.901066,-1.660246 0.220286,-0.290004 0.400774,-0.555657 0.401085,-0.590341 0.0013,-0.143727 -0.207372,-0.04312 -0.570292,0.274982 -0.810636,0.710523 -1.533331,0.999848 -3.862183,1.546194 -1.649546,0.386982 -2.502908,0.553666 -2.846251,0.555946 -0.712274,0.0047 -1.443057,0.678448 -1.183985,1.091527 0.131732,0.210042 0.08327,0.231519 -0.677164,0.300136 -0.51181,0.04618 -0.718414,0.02864 -1.004324,-0.08527 -0.441406,-0.175867 -0.81676,-0.11993 -1.167556,0.173992 -0.273744,0.229363 -0.344536,0.633902 -0.168308,0.961791 0.08607,0.160137 0.09319,0.159899 0.436807,-0.01466 0.345484,-0.175505 0.356293,-0.175813 0.985979,-0.02815 0.565381,0.13258 0.703195,0.13681 1.23086,0.03777 1.061448,-0.199222 1.336618,-0.199072 1.803645,9.85e-4 l 0.430601,0.184454 -0.263257,0.326199 c -0.270596,0.335292 -1.141056,0.98153 -1.773239,1.316469 -0.227139,0.120343 -0.504186,0.189182 -0.761372,0.189182 -0.394395,0 -0.404302,0.0063 -0.404302,0.256417 0,0.238647 0.204724,0.752549 0.299794,0.752549 0.02318,0 0.07826,-0.09459 0.1224,-0.210201 0.09557,-0.250301 0.203968,-0.266683 0.354077,-0.05351 0.130484,0.185302 0.652529,0.515192 0.815991,0.51564 0.07681,2.11e-4 0.09386,-0.04819 0.05172,-0.146826 z m -2.723265,-3.735114 c 0.02025,-0.06136 0.142528,-0.12394 0.271721,-0.139059 0.165557,-0.01938 0.224027,0.0054 0.198074,0.08408 -0.02025,0.06136 -0.142528,0.12394 -0.271721,0.139059 -0.165557,0.01938 -0.224027,-0.0054 -0.198074,-0.08408 z m 3.084708,-0.208976 c -0.174155,-0.07193 -0.316645,-0.160393 -0.316645,-0.196585 0,-0.133547 0.555118,-0.655839 0.742792,-0.698866 0.231783,-0.05314 1.243406,0.269462 1.142801,0.364435 -0.715303,0.67526 -0.992529,0.769089 -1.568948,0.531016 z m 0.753037,-0.245436 c 0.06776,-0.175821 -0.157594,-0.392434 -0.336961,-0.323896 -0.141164,0.05394 -0.192323,0.29397 -0.08536,0.400483 0.105229,0.104783 0.370997,0.05659 0.422318,-0.07659 z m 3.49087,3.873453 c 0.338561,-0.305093 0.223333,-0.432536 -0.444159,-0.491242 -0.3367,-0.02961 -0.716675,-0.07732 -0.844389,-0.106018 -0.203098,-0.04564 -0.23187,-0.02723 -0.229521,0.146806 0.003,0.225758 0.130654,0.416774 0.377289,0.564766 0.234698,0.140828 0.935589,0.0706 1.14078,-0.114312 z m 3.202471,0.0072 c 0.194701,-0.233605 -0.244865,-1.349331 -0.76319,-1.937166 -0.203541,-0.230836 -0.326399,-0.297386 -0.54901,-0.297386 -0.157734,0 -0.286788,0.02138 -0.286788,0.04752 0,0.02613 0.186889,0.239569 0.41531,0.4743 0.22842,0.23473 0.484903,0.55629 0.569962,0.714577 0.147078,0.273702 0.147388,0.29187 0.0063,0.370995 -0.165932,0.09307 -0.11828,0.235236 0.186933,0.557684 0.208832,0.220626 0.284114,0.233066 0.420457,0.06948 z m -8.387966,-1.277207 c 0.320763,-0.151565 0.393156,-0.328583 0.0972,-0.237674 -0.249721,0.07671 -0.654401,0.282938 -0.654401,0.333494 0,0.08306 0.280835,0.03477 0.557201,-0.09582 z m -5.696967,-1.766025 c 0.08303,-0.07482 0.276006,-0.162549 0.428843,-0.194954 l 0.277884,-0.05892 -0.362979,-0.187207 c -0.436831,-0.225295 -0.492442,-0.343707 -0.363181,-0.773311 0.133156,-0.442549 0.403974,-0.735055 0.807643,-0.872322 0.18414,-0.06262 0.347235,-0.150996 0.362434,-0.196398 0.05849,-0.174733 -0.262747,-0.179205 -0.659658,-0.0092 -0.300543,0.128742 -0.484639,0.282935 -0.669371,0.560646 -0.140147,0.210686 -0.254812,0.45047 -0.254812,0.532854 0,0.196099 -0.176346,0.578105 -0.26687,0.578105 -0.09636,0 -0.408641,0.317226 -0.408641,0.415117 0,0.04334 0.123933,0.05877 0.275407,0.03429 0.209601,-0.03387 0.313607,-0.0025 0.435281,0.131407 0.192148,0.211421 0.206104,0.212819 0.39802,0.03987 z m 11.554783,-3.603833 c 0.274056,-0.201334 0.591705,-0.600198 0.59285,-0.744427 9.63e-4,-0.12125 -0.131694,-0.02818 -0.669101,0.46945 -0.368875,0.341569 -0.47595,0.483463 -0.364827,0.483463 0.08651,0 0.284992,-0.09382 0.441078,-0.208486 z"
           id="path3"
           sodipodi:nodetypes="csssssscsssscssssssssssssssssssssssssssssssssssssscsssssssssssscssscscscssssssssccssssssssssssssscsscscsssssscscccssscssssssscsssscsssscsscsssssscssssssssssscsscccssssssssssssssscscscssssssssscccscsscsccsssssssssssscsssssssssssssssssscssssssscsssssssccssssssssssssscssscssssssssssssssssssssscssssssccsssccscssscssssscssssssscssssssssssssscsssssssssssscsscssssssssscsssssssscccscscsssssssssscsscsccssssscsccsssscscsssscssssscccsssss" /></g><path
         id="path2"
         style="fill:#000000;stroke-width:1.25902"
         d="m 13.252764,26.436415 c 0.337956,0 12.016473,12.22402 13.463248,13.9382 0.345833,0.409753 -5.206595,5.526305 -5.400784,5.516594 -0.473113,-0.02362 -0.218642,-0.598919 -0.04815,-0.708523 0.228554,-0.146925 2.824534,-2.791657 3.588196,-3.803681 0.498392,-0.660483 -0.187845,-1.274087 -0.641606,-0.779219 -0.773421,0.843488 -3.400001,3.634669 -3.636245,3.786543 -0.271865,0.174772 -0.698673,0.03934 -0.679246,-0.154848 0.01591,-0.159069 2.71776,-3.028532 3.604661,-4.065232 0.61742,-0.721703 -0.412924,-0.848056 -0.583299,-0.627968 -0.761249,0.983364 -3.110098,3.661153 -3.332359,3.624885 -0.195452,-0.03189 -0.621249,0.194295 -0.601822,-0.232921 0.01647,-0.362231 2.780286,-2.880558 3.58234,-3.799539 0.472163,-0.540996 -0.447792,-0.848937 -0.62769,-0.612861 -0.626913,0.822682 -3.066252,3.090281 -3.414401,3.009045 -0.411938,-0.09613 -0.480671,-0.137492 -0.37082,-0.370924 0.09293,-0.197479 2.441661,-2.453778 3.17995,-3.106017 0.005,-0.06324 0.08979,-0.265841 0.04739,-0.358524 -0.207337,-0.453178 -0.529486,-0.317801 -0.988185,0.128248 l -0.413793,0.401431 c 0,0 -2.484322,2.310346 -2.628499,2.310346 -0.144179,0 -0.371006,-0.0959 -0.405335,-0.240078 -0.03432,-0.144177 -0.02761,-0.453586 0.164606,-0.563435 0.150082,-0.08576 2.333751,-2.029315 3.284323,-2.877686 8.49e-4,-0.0033 8.75e-4,-0.0065 0.0013,-0.0091 0.07116,-0.460516 -0.183639,-0.55051 -0.482759,-0.551073 l -1.167209,1.011711 c -1.743694,1.512266 -2.387087,1.971822 -2.560835,1.828238 -0.118298,-0.09774 -0.11928,-0.153652 -0.0059,-0.314899 0.12758,-0.18137 1.694172,-1.597367 2.862071,-2.586859 l 0.407435,-0.330663 c 0.07588,-0.387021 -0.09512,-0.605786 -0.549323,-0.592062 l -1.279063,1.084079 c -1.971112,1.661245 -2.433313,1.932611 -2.433313,1.430059 0,-0.148797 0.879673,-0.954663 2.472349,-2.265454 l 0.775033,-0.669334 c 0.09702,-0.376205 -0.02331,-0.5699 -0.458685,-0.513988 -0.04663,0.006 -0.270751,0.1732 -0.687199,0.50798 -0.416449,0.33478 -1.095147,0.88091 -1.508785,1.213405 -0.965763,0.776308 -1.196157,0.901396 -1.359141,0.739102 -0.174046,-0.173306 0.109635,-0.455739 1.85231,-1.842552 1.452715,-1.156063 1.45769,-1.161173 1.290176,-1.415746 -0.09249,-0.14054 -0.225257,-0.255693 -0.29473,-0.255693 -0.06947,0 -0.577766,0.362908 -1.130125,0.806117 -0.552357,0.443208 -1.26224,0.978834 -1.577098,1.190631 -0.314858,0.211796 -0.63875,0.432999 -0.720234,0.491217 -0.199403,0.142477 -0.391408,-0.147129 -0.227717,-0.343526 0.06345,-0.07613 0.738228,-0.62518 1.499025,-1.220561 0.760797,-0.595382 1.473218,-1.154041 1.582955,-1.241379 0.184677,-0.146971 0.186787,-0.176421 0.03058,-0.396879 -0.09283,-0.131002 -0.226714,-0.238125 -0.297333,-0.238125 -0.07062,0 -0.438665,0.249958 -0.817827,0.555627 -2.054789,1.656516 -2.815876,2.108403 -2.815876,1.67144 0,-0.119633 1.537771,-1.36764 3.064412,-2.486664 0.16721,-0.122566 0.174503,-0.17287 0.054,-0.364997 -0.07684,-0.122516 -0.188955,-0.222511 -0.249187,-0.222511 -0.06023,0 -0.632311,0.382552 -1.271308,0.849707 -1.731871,1.266126 -2.172804,1.53122 -2.313599,1.391023 -0.176116,-0.17537 0.08481,-0.417864 1.748212,-1.625245 1.285706,-0.933225 1.448778,-1.085096 1.353936,-1.261549 -0.0593,-0.110341 -0.166463,-0.201042 -0.238127,-0.201042 -0.07166,0 -0.776011,0.457956 -1.564737,1.017568 -1.64149,1.164664 -1.868988,1.291681 -2.03058,1.130774 -0.154355,-0.153699 0.105859,-0.383125 1.793755,-1.580352 1.260805,-0.894294 1.398237,-1.022239 1.298635,-1.207548 -0.06126,-0.113967 -0.169817,-0.206897 -0.24138,-0.206897 -0.07156,0 -0.721277,0.406204 -1.443722,0.903059 -1.765857,1.214447 -2.139233,1.39981 -2.139233,1.061159 0,-0.08395 0.717603,-0.638838 1.594665,-1.233573 0.877061,-0.594737 1.594667,-1.112334 1.594667,-1.150293 0,-0.03796 -0.06915,-0.16154 -0.153547,-0.274562 -0.184666,-0.247265 -0.09652,-0.292313 -2.070919,1.0514 -0.936965,0.637667 -1.438112,0.917573 -1.559532,0.871178 -0.1673446,-0.06395 -0.1671583,-0.08133 0.002,-0.267404 0.09943,-0.109397 0.849917,-0.640881 1.667534,-1.180872 1.471242,-0.971676 1.484529,-0.983483 1.280418,-1.186728 -0.20411,-0.203244 -0.222093,-0.195786 -1.729344,0.774886 -1.6409007,1.056744 -1.9017578,1.181216 -1.9017578,0.906312 0,-0.106362 0.5950498,-0.560505 1.5413158,-1.176318 0.847826,-0.551751 1.541314,-1.045013 1.541314,-1.096293 0,-0.05128 -0.06717,-0.149155 -0.149641,-0.217306 -0.119784,-0.099 -0.405903,0.03606 -1.423554,0.671437 -1.4750358,0.920952 -2.00634,1.190602 -2.119715,1.076774 -0.044582,-0.04477 0.053496,-0.187793 0.2173062,-0.318153 0.6175926,-0.491494 4.1096008,-2.602473 4.3051428,-2.602473 z"
         sodipodi:nodetypes="cssssssssssssssscsccssscsccccccccsccsssssssssssssssssssssssssssssssssscsscsssssssssscc" /><path
         id="path59"
         style="fill:#000000;stroke-width:1.25902"
         d="m 40.144915,26.436415 c -0.337955,0 -12.016472,12.22402 -13.463248,13.9382 -0.345832,0.409753 5.206596,5.526305 5.400785,5.516594 0.473113,-0.02362 0.218642,-0.598919 0.04814,-0.708523 -0.228554,-0.146925 -2.824534,-2.791657 -3.588196,-3.803681 -0.498392,-0.660483 0.187845,-1.274087 0.641606,-0.779219 0.773421,0.843488 3.400001,3.634669 3.636245,3.786543 0.271865,0.174772 0.698673,0.03934 0.679246,-0.154848 -0.01591,-0.159069 -2.71776,-3.028532 -3.604661,-4.065232 -0.61742,-0.721703 0.412924,-0.848056 0.583299,-0.627968 0.761249,0.983364 3.110098,3.661153 3.332359,3.624885 0.195452,-0.03189 0.621248,0.194295 0.601822,-0.232921 -0.01647,-0.362231 -2.780286,-2.880558 -3.582341,-3.799539 -0.472162,-0.540996 0.447792,-0.848937 0.62769,-0.612861 0.626914,0.822682 3.066253,3.090281 3.414402,3.009045 0.411937,-0.09613 0.480671,-0.137492 0.37082,-0.370924 -0.09293,-0.197479 -2.441661,-2.453778 -3.17995,-3.106017 -0.005,-0.06324 -0.08979,-0.265841 -0.04739,-0.358524 0.207337,-0.453178 0.529486,-0.317801 0.988185,0.128248 l 0.413793,0.401431 c 0,0 2.484322,2.310346 2.628499,2.310346 0.144179,0 0.371006,-0.0959 0.405335,-0.240078 0.03432,-0.144177 0.02761,-0.453586 -0.164606,-0.563435 -0.150082,-0.08576 -2.333752,-2.029315 -3.284323,-2.877686 -8.49e-4,-0.0033 -8.75e-4,-0.0065 -0.0013,-0.0091 -0.07116,-0.460516 0.183638,-0.55051 0.482758,-0.551073 l 1.16721,1.011711 c 1.743693,1.512266 2.387087,1.971822 2.560835,1.828238 0.118298,-0.09774 0.11928,-0.153652 0.0059,-0.314899 -0.127579,-0.18137 -1.694171,-1.597367 -2.86207,-2.586859 l -0.407435,-0.330663 c -0.07588,-0.387021 0.09512,-0.605786 0.549323,-0.592062 l 1.279062,1.084079 c 1.971113,1.661245 2.433314,1.932611 2.433314,1.430059 0,-0.148797 -0.879673,-0.954663 -2.47235,-2.265454 l -0.775032,-0.669334 c -0.09702,-0.376205 0.02331,-0.5699 0.458685,-0.513988 0.04663,0.006 0.270751,0.1732 0.687199,0.50798 0.416449,0.33478 1.095147,0.88091 1.508785,1.213405 0.965763,0.776308 1.196157,0.901396 1.359141,0.739102 0.174046,-0.173306 -0.109636,-0.455739 -1.852311,-1.842552 -1.452714,-1.156063 -1.45769,-1.161173 -1.290175,-1.415746 0.09249,-0.14054 0.225257,-0.255693 0.29473,-0.255693 0.06947,0 0.577766,0.362908 1.130124,0.806117 0.552358,0.443208 1.262241,0.978834 1.577099,1.190631 0.314858,0.211796 0.63875,0.432999 0.720234,0.491217 0.199403,0.142477 0.391408,-0.147129 0.227717,-0.343526 -0.06345,-0.07613 -0.738228,-0.62518 -1.499025,-1.220561 -0.760797,-0.595382 -1.473218,-1.154041 -1.582955,-1.241379 -0.184677,-0.146971 -0.186787,-0.176421 -0.03058,-0.396879 0.09283,-0.131002 0.226715,-0.238125 0.297334,-0.238125 0.07062,0 0.438665,0.249958 0.817826,0.555627 2.05479,1.656516 2.815877,2.108403 2.815877,1.67144 0,-0.119633 -1.537771,-1.36764 -3.064412,-2.486664 -0.167211,-0.122566 -0.174503,-0.17287 -0.054,-0.364997 0.07684,-0.122516 0.188955,-0.222511 0.249187,-0.222511 0.06023,0 0.632311,0.382552 1.271308,0.849707 1.731871,1.266126 2.172804,1.53122 2.313599,1.391023 0.176116,-0.17537 -0.08481,-0.417864 -1.748212,-1.625245 -1.285706,-0.933225 -1.448779,-1.085096 -1.353936,-1.261549 0.0593,-0.110341 0.166463,-0.201042 0.238126,-0.201042 0.07166,0 0.776012,0.457956 1.564738,1.017568 1.641489,1.164664 1.868987,1.291681 2.030579,1.130774 0.154355,-0.153699 -0.105858,-0.383125 -1.793755,-1.580352 -1.260805,-0.894294 -1.398236,-1.022239 -1.298635,-1.207548 0.06127,-0.113967 0.169818,-0.206897 0.24138,-0.206897 0.07156,0 0.721277,0.406204 1.443723,0.903059 1.765857,1.214447 2.139233,1.39981 2.139233,1.061159 0,-0.08395 -0.717603,-0.638838 -1.594665,-1.233573 C 40.309606,29.960174 39.592,29.442577 39.592,29.404618 c 0,-0.03796 0.06915,-0.16154 0.153547,-0.274562 0.184666,-0.247265 0.09652,-0.292313 2.070919,1.0514 0.936965,0.637667 1.438112,0.917573 1.559532,0.871178 0.167344,-0.06395 0.167158,-0.08133 -0.002,-0.267404 -0.09942,-0.109397 -0.849917,-0.640881 -1.667534,-1.180872 -1.471242,-0.971676 -1.484529,-0.983483 -1.280418,-1.186728 0.20411,-0.203244 0.222093,-0.195786 1.729344,0.774886 1.640901,1.056744 1.901758,1.181216 1.901758,0.906312 0,-0.106362 -0.59505,-0.560505 -1.541316,-1.176318 -0.847826,-0.551751 -1.541314,-1.045013 -1.541314,-1.096293 0,-0.05128 0.06717,-0.149155 0.149641,-0.217306 0.119783,-0.099 0.405903,0.03606 1.423554,0.671437 1.475036,0.920952 2.00634,1.190602 2.119715,1.076774 0.04458,-0.04477 -0.0535,-0.187793 -0.217306,-0.318153 -0.617593,-0.491494 -4.109601,-2.602473 -4.305143,-2.602473 z"
         sodipodi:nodetypes="cssssssssssssssscsccssscsccccccccsccsssssssssssssssssssssssssssssssssscsscsssssssssscc" /></g><g
       id="g20"
       transform="matrix(0.75213553,0,0,0.75213553,-48.994404,13.000053)"
       style="fill:#ffffff"><path
         id="path30-2"
         style="fill:#ffffff;fill-opacity:1;stroke:none;stroke-width:0.0349404"
         d="m 94.816632,42.398684 c -0.212393,0 -0.386368,0.174001 -0.386368,0.386374 v 2.708464 c 0,0.212392 0.173975,0.386368 0.386368,0.386368 h 5.766528 c 0.21237,0 0.38573,-0.174001 0.38573,-0.386368 v -0.63793 c 0,-0.07065 0.028,-0.138347 0.0781,-0.188347 l 0.318,-0.317998 c 0.0887,-0.08872 0.0883,-0.232132 -6.8e-4,-0.320578 l -0.31671,-0.315417 c -0.0503,-0.04999 -0.0787,-0.118067 -0.0787,-0.188998 v -0.739202 c 0,-0.212367 -0.17337,-0.386368 -0.38573,-0.386368 z m 3.769533,0.588911 c 0.195141,0 0.372416,0.03293 0.531499,0.09869 0.06896,0.02853 0.132813,0.06287 0.192211,0.102549 0.125921,0.0841 0.132555,0.269318 0.01101,0.365089 -0.07803,0.06146 -0.189116,0.06214 -0.270912,0.0056 -0.128758,-0.08868 -0.275059,-0.132882 -0.438616,-0.132882 -0.142143,0 -0.268357,0.02971 -0.378628,0.089 -0.110334,0.05948 -0.195844,0.143339 -0.257368,0.251563 -0.06153,0.10818 -0.09289,0.2322 -0.09289,0.372177 0,0.137925 0.03134,0.260779 0.09289,0.368953 0.06153,0.108181 0.146807,0.192403 0.256077,0.252853 0.109232,0.06047 0.233466,0.09094 0.373468,0.09094 0.08138,0 0.158457,-0.0099 0.230911,-0.02902 0.07707,-0.0204 0.135697,-0.07798 0.158668,-0.15093 0.0082,-0.02586 -0.01149,-0.05222 -0.0387,-0.05222 -0.148049,0 -0.267079,-0.125316 -0.257366,-0.275428 0.0089,-0.136964 0.12911,-0.240592 0.266395,-0.240592 h 0.254138 c 0.0023,0 0.0049,6.21e-4 0.007,6.21e-4 0.0023,-6.9e-5 0.0042,-6.21e-4 0.0063,-6.21e-4 h 0.01805 c 0.125195,0 0.226411,0.101892 0.226411,0.227041 v 0.316063 c 0,0.259854 -0.167177,0.492619 -0.415397,0.56956 -0.0017,3.29e-4 -0.003,6.2e-4 -0.0045,0.0012 -0.159113,0.04881 -0.319365,0.0729 -0.480544,0.0729 -0.231239,0 -0.439186,-0.04906 -0.623741,-0.147724 -0.184546,-0.09864 -0.329105,-0.235214 -0.434099,-0.410233 -0.10499,-0.175006 -0.157402,-0.372773 -0.157402,-0.593425 0,-0.220572 0.05239,-0.418438 0.157402,-0.59342 0.104989,-0.175031 0.250601,-0.312279 0.437324,-0.410884 0.186586,-0.09864 0.396823,-0.147718 0.630193,-0.147718 z m -3.274154,0.03808 h 0.05096 c 0.07632,0 0.148401,0.03448 0.196735,0.09352 L 96.4034,44.14866 c 0.06296,0.07693 0.18771,0.03293 0.18771,-0.06643 v -0.801767 c 0,-0.140597 0.113546,-0.254787 0.254141,-0.254787 0.140595,0 0.254787,0.114177 0.254787,0.254787 v 1.718345 c 0,0.140573 -0.114178,0.254143 -0.254787,0.254143 h -0.04772 c -0.0762,0 -0.148377,-0.03399 -0.196734,-0.0929 l -0.846918,-1.030749 c -0.06303,-0.07676 -0.18771,-0.03225 -0.18771,0.06709 v 0.802413 c 0,0.140573 -0.113545,0.254142 -0.254146,0.254142 -0.140571,0 -0.254782,-0.113569 -0.254782,-0.254142 V 43.28046 c 0,-0.140598 0.114225,-0.254788 0.254782,-0.254788 z m 4.772549,0 c 0.14235,0 0.25801,0.115654 0.25801,0.258013 v 1.711901 c 0,0.142353 -0.11566,0.257361 -0.25801,0.257361 -0.142356,0 -0.257368,-0.115021 -0.257368,-0.257361 v -1.711901 c 0,-0.142353 0.115022,-0.258013 0.257368,-0.258013 z" /><path
         style="font-variant:normal;font-weight:600;font-stretch:normal;font-size:31.76px;font-family:'Montserrat SemiBold';-inkscape-font-specification:Montserrat-SemiBold;font-variant-ligatures:normal;font-variant-caps:normal;font-variant-numeric:normal;font-feature-settings:normal;text-align:start;writing-mode:lr-tb;text-anchor:start;fill:#ffffff;fill-opacity:1;fill-rule:nonzero;stroke:none;stroke-width:0.0349406"
         d="m 102.44599,43.824151 h 0.68002 v 0.126252 l -0.43402,0.525054 h 0.44648 v 0.157679 h -0.70495 v -0.126252 l 0.43403,-0.525054 h -0.42156 z"
         id="path2325-8" /><path
         style="font-variant:normal;font-weight:600;font-stretch:normal;font-size:31.76px;font-family:'Montserrat SemiBold';-inkscape-font-specification:Montserrat-SemiBold;font-variant-ligatures:normal;font-variant-caps:normal;font-variant-numeric:normal;font-feature-settings:normal;text-align:start;writing-mode:lr-tb;text-anchor:start;fill:#ffffff;fill-opacity:1;fill-rule:nonzero;stroke:none;stroke-width:0.0349406"
         d="m 103.67545,43.824151 h 0.56298 v 0.157679 h -0.35437 v 0.150635 h 0.33324 v 0.157679 h -0.33324 v 0.185313 h 0.36629 v 0.157679 h -0.5749 z"
         id="path2327-6" /><path
         style="font-variant:normal;font-weight:600;font-stretch:normal;font-size:31.76px;font-family:'Montserrat SemiBold';-inkscape-font-specification:Montserrat-SemiBold;font-variant-ligatures:normal;font-variant-caps:normal;font-variant-numeric:normal;font-feature-settings:normal;text-align:start;writing-mode:lr-tb;text-anchor:start;fill:#ffffff;fill-opacity:1;fill-rule:nonzero;stroke:none;stroke-width:0.0349406"
         d="m 105.11623,44.182857 q 0.0656,0 0.0937,-0.02438 0.0287,-0.02438 0.0287,-0.08019 0,-0.05527 -0.0287,-0.07911 -0.0282,-0.02384 -0.0937,-0.02384 h -0.0878 v 0.207529 z m -0.0878,0.144133 v 0.306146 h -0.20861 v -0.808985 h 0.31861 q 0.15984,0 0.23408,0.05364 0.0748,0.05364 0.0748,0.1696 0,0.08019 -0.039,0.13167 -0.0385,0.05148 -0.1165,0.07586 0.0428,0.0098 0.0764,0.04443 0.0341,0.03414 0.0688,0.104036 l 0.11325,0.229745 h -0.22216 l -0.0986,-0.201027 q -0.0298,-0.06069 -0.0607,-0.0829 -0.0303,-0.02222 -0.0813,-0.02222 z"
         id="path2329-2" /><path
         style="font-variant:normal;font-weight:600;font-stretch:normal;font-size:31.76px;font-family:'Montserrat SemiBold';-inkscape-font-specification:Montserrat-SemiBold;font-variant-ligatures:normal;font-variant-caps:normal;font-variant-numeric:normal;font-feature-settings:normal;text-align:start;writing-mode:lr-tb;text-anchor:start;fill:#ffffff;fill-opacity:1;fill-rule:nonzero;stroke:none;stroke-width:0.0349406"
         d="m 106.42914,43.960698 q -0.0954,0 -0.14793,0.07044 -0.0526,0.07044 -0.0526,0.198318 0,0.127335 0.0526,0.197776 0.0526,0.07044 0.14793,0.07044 0.0959,0 0.14847,-0.07044 0.0526,-0.07044 0.0526,-0.197776 0,-0.127877 -0.0526,-0.198318 -0.0526,-0.07044 -0.14847,-0.07044 z m 0,-0.151177 q 0.19507,0 0.3056,0.111622 0.11054,0.111621 0.11054,0.308313 0,0.196151 -0.11054,0.307772 -0.11053,0.111622 -0.3056,0.111622 -0.19453,0 -0.30561,-0.111622 -0.11053,-0.111621 -0.11053,-0.307772 0,-0.196692 0.11053,-0.308313 0.11108,-0.111622 0.30561,-0.111622 z"
         id="path2331-7" /></g><path
       style="font-weight:bold;font-size:3.22681px;line-height:1.25;font-family:Roboto;-inkscape-font-specification:'Roboto Bold';text-align:center;text-anchor:middle;fill:#ffffff;stroke-width:0.201675"
       d="m 16.684166,42.288781 h 0.0095 l 0.304089,-1.556684 h 0.474252 l -0.5357,2.29406 h -0.426986 l -0.422258,-1.510991 h -0.0095 l -0.420683,1.510991 h -0.426985 l -0.535701,-2.29406 h 0.474253 l 0.305664,1.555108 h 0.0095 l 0.412805,-1.555108 h 0.371839 z m 1.481055,0.737376 h -0.460072 v -1.704789 h 0.460072 z m 0,-2.112867 h -0.460072 v -0.345054 h 0.460072 z m 1.274653,0.803551 -0.168588,-0.0047 q -0.102413,0 -0.168588,0.04254 -0.06618,0.04254 -0.100838,0.119744 v 1.151757 h -0.458497 v -1.704789 h 0.426985 l 0.02048,0.252095 q 0.05987,-0.133926 0.154408,-0.207978 0.09611,-0.07563 0.220582,-0.07563 0.03466,0 0.06302,0.0063 0.02994,0.0047 0.05987,0.0126 z m 0.948506,1.342404 q -0.381293,0 -0.595573,-0.233188 -0.21428,-0.234763 -0.21428,-0.603451 v -0.06302 q 0,-0.382868 0.207978,-0.627085 0.207978,-0.244216 0.571939,-0.242641 0.343479,0 0.526247,0.211129 0.184344,0.209554 0.184344,0.565638 v 0.237914 h -1.016256 l -0.0047,0.0095 q 0.01103,0.174891 0.105564,0.283607 0.09611,0.108715 0.283607,0.108715 0.154407,0 0.261548,-0.03151 0.108715,-0.03151 0.223733,-0.09611 l 0.124472,0.283606 q -0.102413,0.08351 -0.277304,0.140228 -0.17489,0.05672 -0.381293,0.05672 z m -0.02994,-1.414881 q -0.138652,0 -0.21428,0.09611 -0.07405,0.09454 -0.08981,0.252095 l 0.0032,0.0079 h 0.56091 v -0.03466 q 0,-0.149681 -0.06145,-0.234763 -0.06145,-0.08666 -0.198524,-0.08666 z m 2.771464,1.068251 q -0.10714,0.140227 -0.319845,0.244216 -0.212705,0.102414 -0.548306,0.102414 -0.415955,0 -0.680655,-0.261548 -0.264699,-0.261548 -0.264699,-0.67908 v -0.47898 q 0,-0.415956 0.256821,-0.677504 0.256822,-0.263123 0.660173,-0.263123 0.420683,0 0.644416,0.2001 0.223734,0.198524 0.215856,0.530974 l -0.0032,0.0095 h -0.433287 q 0,-0.182768 -0.105565,-0.283606 -0.105564,-0.102413 -0.30724,-0.102413 -0.211129,0 -0.340328,0.163861 -0.129198,0.162286 -0.129198,0.419107 v 0.482131 q 0,0.259973 0.13235,0.423834 0.132349,0.163861 0.354507,0.163861 0.163862,0 0.258397,-0.03309 0.09611,-0.03309 0.148106,-0.08351 v -0.444317 h -0.441166 v -0.318269 h 0.902814 z m 1.4007,0.06145 q -0.07878,0.137076 -0.2001,0.211129 -0.121321,0.07405 -0.282031,0.07405 -0.269426,0 -0.422258,-0.182769 -0.151257,-0.182768 -0.151257,-0.567212 v -0.987896 h 0.458497 v 0.991047 q 0,0.223734 0.05987,0.30724 0.06145,0.08193 0.189071,0.08193 0.110292,0 0.189071,-0.03466 0.07878,-0.03624 0.129199,-0.105565 v -1.23999 h 0.460072 v 1.704789 h -0.381293 z m 1.781994,0.252094 q -0.02521,-0.0583 -0.04412,-0.122896 -0.01733,-0.0646 -0.02521,-0.132349 -0.0709,0.124471 -0.187496,0.206402 -0.116593,0.08193 -0.277304,0.08193 -0.26785,0 -0.412804,-0.137077 -0.144955,-0.138652 -0.144955,-0.376566 0,-0.250519 0.192222,-0.387595 0.193798,-0.138652 0.564062,-0.138652 h 0.258397 v -0.135501 q 0,-0.122896 -0.0646,-0.190646 -0.0646,-0.06775 -0.192222,-0.06775 -0.111867,0 -0.173315,0.05515 -0.05987,0.05357 -0.05987,0.148105 h -0.442741 l -0.0032,-0.0095 q -0.01103,-0.215856 0.187495,-0.37184 0.2001,-0.157559 0.521521,-0.157559 0.30724,0 0.496311,0.154408 0.190646,0.154408 0.190646,0.442741 v 0.704289 q 0,0.119745 0.01733,0.22531 0.01891,0.105564 0.0583,0.209553 z m -0.420683,-0.30724 q 0.119745,0 0.21428,-0.05987 0.09454,-0.05987 0.129199,-0.138652 v -0.241066 h -0.258397 q -0.14653,0 -0.222158,0.07248 -0.07405,0.07248 -0.07405,0.178041 0,0.08666 0.05515,0.138652 0.05672,0.05042 0.155984,0.05042 z m 2.045116,-1.002076 -0.168588,-0.0047 q -0.102413,0 -0.168588,0.04254 -0.06617,0.04254 -0.100838,0.119744 v 1.151757 h -0.458497 v -1.704789 h 0.426985 l 0.02048,0.252095 q 0.05987,-0.133926 0.154408,-0.207978 0.09611,-0.07563 0.220583,-0.07563 0.03466,0 0.06302,0.0063 0.02994,0.0047 0.05987,0.0126 z m 0.138652,0.471102 q 0,-0.403351 0.173315,-0.650719 0.174891,-0.247368 0.491585,-0.247368 0.127623,0 0.230036,0.05515 0.102413,0.05515 0.179617,0.157559 v -0.934325 h 0.461648 v 2.457921 h -0.392322 l -0.03939,-0.209553 q -0.08036,0.118169 -0.190647,0.181193 -0.110291,0.06145 -0.252094,0.06145 -0.313543,0 -0.488434,-0.230036 -0.173315,-0.230037 -0.173315,-0.608179 z m 0.458497,0.03309 q 0,0.223734 0.07563,0.352933 0.07563,0.127623 0.245792,0.127623 0.09926,0 0.173315,-0.03939 0.07405,-0.04096 0.12132,-0.118169 v -0.726348 q -0.04727,-0.08035 -0.12132,-0.124471 -0.07248,-0.04569 -0.170164,-0.04569 -0.168588,0 -0.247368,0.149682 -0.0772,0.149681 -0.0772,0.390746 z m 3.61283,-0.148105 h -0.880755 v 0.953232 h -0.460073 v -2.29406 h 1.501538 v 0.354508 h -1.041465 v 0.631812 h 0.880755 z m 0.913843,0.12132 v 0.831912 h -0.460072 v -2.29406 h 0.877604 q 0.395473,0 0.622358,0.201676 0.226885,0.201675 0.226885,0.530974 0,0.329298 -0.226885,0.529398 -0.226885,0.2001 -0.622358,0.2001 z m 0,-0.354508 h 0.417532 q 0.192222,0 0.291484,-0.103988 0.09926,-0.105565 0.09926,-0.267851 0,-0.165437 -0.09926,-0.272577 -0.09769,-0.108716 -0.291484,-0.108716 h -0.417532 z m 3.354432,0.872878 q -0.10714,0.140227 -0.319845,0.244216 -0.212705,0.102414 -0.548306,0.102414 -0.415956,0 -0.680655,-0.261548 -0.264699,-0.261548 -0.264699,-0.67908 v -0.47898 q 0,-0.415956 0.256821,-0.677504 0.256821,-0.263123 0.660173,-0.263123 0.420682,0 0.644416,0.2001 0.223734,0.198524 0.215856,0.530974 l -0.0032,0.0095 h -0.433287 q 0,-0.182768 -0.105565,-0.283606 -0.105565,-0.102413 -0.30724,-0.102413 -0.211129,0 -0.340328,0.163861 -0.129198,0.162286 -0.129198,0.419107 v 0.482131 q 0,0.259973 0.132349,0.423834 0.13235,0.163861 0.354508,0.163861 0.163862,0 0.258397,-0.03309 0.09611,-0.03309 0.148106,-0.08351 v -0.444317 h -0.441166 v -0.318269 h 0.902814 z m 1.586621,-0.181193 h -0.743679 l -0.154408,0.494735 h -0.480555 l 0.773615,-2.29406 h 0.471102 l 0.770464,2.29406 h -0.480556 z m -0.630236,-0.36081 h 0.518369 l -0.25367,-0.808279 h -0.0095 z"
       id="text83"
       aria-label="WireGuard FPGA" /></g></svg>
